<svg xmlns="http://www.w3.org/2000/svg" width="30.864" height="41.139" viewBox="0 0 30.864 41.139">
  <g id="book-line" transform="translate(-32.243 58.858) rotate(30)">
    <path id="Path_982" data-name="Path 982" d="M0,0H23.141V1.993H0Z" transform="translate(5.013 -66.107) rotate(-30)" fill="#0089ea"/>
    <path id="Path_983" data-name="Path 983" d="M29.578,7.714H4.972A2.43,2.43,0,0,1,2.581,5.142,2.571,2.571,0,0,1,4.972,2.571H29.578a1.286,1.286,0,0,0,0-2.571H4.972A5.142,5.142,0,0,0,.009,5.142a5.322,5.322,0,0,0,0,.63,1.286,1.286,0,0,0,0,.309V36A5.142,5.142,0,0,0,4.972,41.14H29.578a1.286,1.286,0,0,0,1.286-1.286V9.089A1.376,1.376,0,0,0,29.578,7.714ZM28.293,38.568H4.972A2.571,2.571,0,0,1,2.581,36V9.706a4.667,4.667,0,0,0,2.391.579H28.293Z" transform="translate(-1.506 -67.094) rotate(-30)" fill="#0089ea"/>
  </g>
</svg>
