<svg xmlns="http://www.w3.org/2000/svg" width="16.524" height="20.656" viewBox="0 0 16.524 20.656">
  <g id="bxs-file-pdf" transform="translate(-6 -3)">
    <path id="Path_1511" data-name="Path 1511" d="M12.226,22.02a1.547,1.547,0,0,0-.384.037v1.217a1.405,1.405,0,0,0,.312.024c.494,0,.8-.25.8-.673,0-.378-.262-.605-.727-.605Zm3.6.012a1.9,1.9,0,0,0-.42.037v2.7a1.685,1.685,0,0,0,.324.019,1.276,1.276,0,0,0,1.393-1.442,1.182,1.182,0,0,0-1.3-1.31Z" transform="translate(-1.82 -5.924)"/>
    <path id="Path_1512" data-name="Path 1512" d="M16.328,3H8.066A2.066,2.066,0,0,0,6,5.066V21.59a2.066,2.066,0,0,0,2.066,2.066H20.459a2.066,2.066,0,0,0,2.066-2.066V9.2Zm-4.65,14.655a1.915,1.915,0,0,1-1.338.434,2.3,2.3,0,0,1-.318-.019v1.473H9.1V15.478a7.806,7.806,0,0,1,1.259-.085,1.977,1.977,0,0,1,1.26.33,1.208,1.208,0,0,1,.44.954,1.327,1.327,0,0,1-.379.979Zm3.931,1.4a2.958,2.958,0,0,1-1.9.532,7.953,7.953,0,0,1-1.058-.062V15.479a8.208,8.208,0,0,1,1.259-.085,2.65,2.65,0,0,1,1.687.44,1.823,1.823,0,0,1,.7,1.553,2.088,2.088,0,0,1-.685,1.668Zm3.816-2.866H17.844v.941h1.479v.758H17.844v1.657h-.936v-4.12h2.518Zm-3.1-5.959H15.295V5.066l5.164,5.164Z"/>
  </g>
</svg>
