<svg xmlns="http://www.w3.org/2000/svg" width="32.313" height="30.155" viewBox="0 0 32.313 30.155">
  <g id="chat" transform="translate(0 -2.25)">
    <path id="Path_1220" data-name="Path 1220" d="M5.409,24.252a2.02,2.02,0,0,1,.58,1.617,22.155,22.155,0,0,1-.8,4.039,23.841,23.841,0,0,0,5.319-1.8,2.02,2.02,0,0,1,1.433-.149,16.278,16.278,0,0,0,4.22.548c8.07,0,14.137-5.669,14.137-12.118S24.227,4.27,16.157,4.27,2.02,9.941,2.02,16.387a11.1,11.1,0,0,0,3.389,7.864Zm-1,7.886q-.718.142-1.44.26a.525.525,0,0,1-.551-.732q.269-.634.493-1.286l.006-.02A21.12,21.12,0,0,0,3.98,25.677,13.116,13.116,0,0,1,0,16.387C0,8.579,7.234,2.25,16.157,2.25S32.313,8.579,32.313,16.387,25.08,30.524,16.157,30.524a18.3,18.3,0,0,1-4.74-.618,27.612,27.612,0,0,1-7,2.231Z" transform="translate(0)" fill="#0082df" fill-rule="evenodd"/>
  </g>
</svg>
