<svg xmlns="http://www.w3.org/2000/svg" width="367.887" height="252.326" viewBox="0 0 367.887 252.326">
  <g id="Group_190" data-name="Group 190" transform="translate(1 0)">
    <path id="Path_1146" data-name="Path 1146" d="M441.426,436.029c12.235-21.523,35.574-38.049,60.28-36.457a114.068,114.068,0,0,0-30,72.341c-.406,10.375.223,21.957-6.665,29.726-4.286,4.834-10.838,7.175-17.28,7.666s-12.883-.673-19.239-1.832l-1.542.473C426.393,483.2,429.191,457.553,441.426,436.029Z" transform="translate(-309.393 -284.421)" fill="#f0f0f0"/>
    <path id="Path_1147" data-name="Path 1147" d="M501.723,399.319a97.5,97.5,0,0,0-43.411,41.4,41.987,41.987,0,0,0-4.6,12.326,24.081,24.081,0,0,0,1.253,12.611c1.357,3.774,3.182,7.477,3.6,11.515a14.744,14.744,0,0,1-3.946,11.394c-3.449,3.865-8.081,6.259-12.692,8.444-5.12,2.425-10.476,4.863-14.1,9.39-.439.548-1.265-.165-.826-.713,6.309-7.876,17.108-9.356,24.6-15.7,3.494-2.96,6.118-6.992,5.952-11.715-.145-4.131-2.024-7.951-3.431-11.76a25.7,25.7,0,0,1-1.684-12.286,38.815,38.815,0,0,1,4.1-12.457,94.589,94.589,0,0,1,17.394-23.9,99.227,99.227,0,0,1,27.436-19.575c.631-.3.98.731.353,1.033Z" transform="translate(-309.369 -283.649)" fill="#fff"/>
    <path id="Path_1148" data-name="Path 1148" d="M508.119,464.328a14.628,14.628,0,0,1-4.414-18.42c.32-.625,1.306-.158.986.468a13.545,13.545,0,0,0,4.141,17.126C509.4,463.914,508.685,464.738,508.119,464.328Z" transform="translate(-356.353 -320.22)" fill="#fff"/>
    <path id="Path_1149" data-name="Path 1149" d="M498.419,555.755a28.193,28.193,0,0,0,17.851-10.175c.441-.547,1.267.167.826.713a29.325,29.325,0,0,1-18.6,10.55c-.7.1-.773-.989-.08-1.088Z" transform="translate(-353.637 -380.311)" fill="#fff"/>
    <path id="Path_1150" data-name="Path 1150" d="M573.417,432.466a8.28,8.28,0,0,0,7.4,2.638c.695-.108.77.98.08,1.088a9.279,9.279,0,0,1-8.193-2.9.564.564,0,0,1-.057-.77A.548.548,0,0,1,573.417,432.466Z" transform="translate(-399.559 -312.763)" fill="#fff"/>
    <path id="Path_1151" data-name="Path 1151" d="M549.278,558.083c-.432.08-.864.16-1.3.249a109.048,109.048,0,0,0-17.049,4.713c-.431.15-.866.309-1.292.471a114.954,114.954,0,0,0-36.155,22,111.637,111.637,0,0,0-11.71,12.271c-4.953,6.051-9.841,13.006-16.313,16.952a19.168,19.168,0,0,1-2.084,1.13l-37.284-15.465c-.067-.078-.138-.147-.206-.225l-1.517-.549c.169-.239.35-.483.519-.722.1-.139.2-.274.3-.413.068-.092.136-.183.192-.269.022-.031.045-.061.064-.083.056-.086.117-.161.169-.239q1.509-2.051,3.051-4.088c0-.009,0-.009.015-.014A164.147,164.147,0,0,1,455.335,565.6c.3-.244.6-.5.923-.734a106.521,106.521,0,0,1,14.4-9.74A94.176,94.176,0,0,1,479.2,550.9a78.31,78.31,0,0,1,23.726-6.051c16.3-1.514,32.9,2.2,45.406,12.443C548.65,557.554,548.962,557.813,549.278,558.083Z" transform="translate(-306.991 -375.035)" fill="#f0f0f0"/>
    <path id="Path_1152" data-name="Path 1152" d="M549.861,576.9a97.5,97.5,0,0,0-59.586,6.917,41.985,41.985,0,0,0-11.09,7.075,24.081,24.081,0,0,0-6.593,10.824c-1.188,3.83-1.961,7.886-4.06,11.361a14.745,14.745,0,0,1-10.011,6.722c-5.081,1.009-10.221.132-15.218-.9-5.548-1.146-11.293-2.424-16.913-.993-.681.173-.91-.893-.23-1.067,9.779-2.49,19.293,2.83,29.092,2.274,4.572-.26,9.094-1.9,11.806-5.77,2.371-3.385,3.171-7.567,4.341-11.455a25.7,25.7,0,0,1,6.052-10.824,38.814,38.814,0,0,1,10.778-7.475,94.591,94.591,0,0,1,28.281-8.614,99.225,99.225,0,0,1,33.691.888c.687.137.343,1.174-.339,1.037Z" transform="translate(-307.834 -393.412)" fill="#fff"/>
    <path id="Path_1153" data-name="Path 1153" d="M612.188,563.008a14.628,14.628,0,0,1,7.566-17.365c.632-.307,1.138.66.506.967a13.545,13.545,0,0,0-7,16.167C613.46,563.449,612.393,563.675,612.188,563.008Z" transform="translate(-423.528 -380.131)" fill="#fff"/>
    <path id="Path_1154" data-name="Path 1154" d="M550.061,642.431a28.194,28.194,0,0,0,20.379,2.623c.682-.171.911.9.23,1.067a29.325,29.325,0,0,1-21.2-2.773C548.854,643.009,549.449,642.094,550.061,642.431Z" transform="translate(-385.069 -436.149)" fill="#fff"/>
    <path id="Path_1155" data-name="Path 1155" d="M694.605,575.359a8.28,8.28,0,0,0,4.32,6.562c.62.332.025,1.247-.591.917a9.278,9.278,0,0,1-4.8-7.249.564.564,0,0,1,.418-.648A.548.548,0,0,1,694.605,575.359Z" transform="translate(-473.917 -398.196)" fill="#fff"/>
    <path id="Path_1156" data-name="Path 1156" d="M290.86,548.536c-5.221-28.308-11.748-37.746-11.748-37.746l-2.493-2.168-3-2.612.014-.336-.711-.271-.167-.146-.274-.236-.044.053-.093.108-13.569-5.171-17.214-6.556-7.971-11.618a13.311,13.311,0,0,0-11.029-6.032l-25.458.211a13.02,13.02,0,0,0-9.274,4.125l-16.733,17.4-26.073,13.962-.044-.049-.274.219-4.029,2.16.166.97-2.493,2.017s-6.527,8.782-11.748,35.122c-1.328,6.7-1.982,21.079-2.218,38.8a7.216,7.216,0,0,0,1.734,4.846,5.727,5.727,0,0,0,4.295,2.017H287.056a5.727,5.727,0,0,0,4.292-2.015,7.216,7.216,0,0,0,1.736-4.841C292.854,571.471,292.2,555.8,290.86,548.536Z" transform="translate(-125.382 -345.279)" fill="#0089ea"/>
    <path id="Path_1157" data-name="Path 1157" d="M581.546,191.732a20.429,20.429,0,1,0,0,40.858H733.793a20.429,20.429,0,1,0,0-40.858Z" transform="translate(-387.334 -169.715)" fill="#e5e5e5"/>
    <path id="Path_1158" data-name="Path 1158" d="M588.428,202.747a16.295,16.295,0,1,0,0,32.589H740.674a16.295,16.295,0,1,0,0-32.589Z" transform="translate(-394.215 -176.596)" fill="#fff"/>
    <circle id="ab6171fa-7d69-4734-b81c-8dff60f9761b" cx="33.352" cy="33.352" r="33.352" transform="translate(58.002 56.993)" fill="#9e616a"/>
    <path id="Path_1159" data-name="Path 1159" d="M339.263,444.4q-.214-.471-.426-.944c.055,0,.109.01.163.011Z" transform="translate(-256.12 -319.537)" fill="#2f2e41"/>
    <path id="Path_1160" data-name="Path 1160" d="M249.618,250.328c1.687-1.346,3.658-2.584,5.815-2.514s4.344,2.017,3.9,4.128a34.274,34.274,0,0,1,41.246-15.466c5.36,1.891,10.617,5.675,11.848,11.224.316,1.424.384,2.986,1.273,4.143a4.73,4.73,0,0,0,5.034,1.275l.053-.016a1.576,1.576,0,0,1,1.9,2.225l-1.517,2.829a12.154,12.154,0,0,0,5.791-.123,1.574,1.574,0,0,1,1.672,2.45,27.444,27.444,0,0,1-21.883,11.248c-6.06-.037-12.182-2.125-18.08-.732a15.7,15.7,0,0,0-10.563,22.047c-1.812-1.982-5.314-1.513-7.168.431s-2.333,4.843-2.146,7.522c.286,4.1,1.891,7.957,3.583,11.715a35.021,35.021,0,0,1-20.76-62.384Z" transform="translate(-194.45 -192.838)" fill="#2f2e41"/>
    <path id="Path_1161" data-name="Path 1161" d="M87.464,495.253l9.355,50.9,5.613.489Z" transform="translate(-54.636 -294.312)" opacity="0.2"/>
    <path id="Path_1162" data-name="Path 1162" d="M337.1,485.026l-9.355,54.7-5.613.525Z" transform="translate(-197.738 -287.924)" opacity="0.2"/>
    <path id="Path_1163" data-name="Path 1163" d="M261.338,169.825a3.325,3.325,0,0,1-4.45-1.952,3.377,3.377,0,0,1,1.77-4.607,3.546,3.546,0,0,1,2.68,6.558ZM257.9,159.51l-1.426.6a1.538,1.538,0,0,1-1.954-.717l-.071-.138c-1.534-2.767-1.71-6.131-.519-9.991,1.1-3.463,1.561-5.9.64-8.105-1.065-2.551-3.34-3.35-6.241-2.193a5.3,5.3,0,0,0-2.369,1.341,2.033,2.033,0,0,1-1.472.6,1.965,1.965,0,0,1-1.406-.617,2.007,2.007,0,0,1-.014-2.739,15.589,15.589,0,0,1,5.272-3.62c6.233-2.6,9.37,1.24,10.806,4.678,1.4,3.363.614,6.484-.655,10.525-1.064,3.358-1,5.847.207,8.321a1.532,1.532,0,0,1-.8,2.061Z" transform="translate(-198.191 -133.069)" fill="#0089ea"/>
    <path id="Path_1164" data-name="Path 1164" d="M653.519,269.693H623.228a.73.73,0,1,1,0-1.459h30.291a.73.73,0,0,1,0,1.459Z" transform="translate(-429.873 -214.264)" fill="#d2d2d2"/>
    <path id="Path_1165" data-name="Path 1165" d="M755.9,270.341H725.609a.73.73,0,0,1,0-1.459H755.9a.73.73,0,1,1,0,1.459Z" transform="translate(-492.662 -214.653)" fill="#d2d2d2"/>
    <path id="Path_1166" data-name="Path 1166" d="M858.282,270.989H827.991a.73.73,0,1,1,0-1.459h30.291a.73.73,0,0,1,0,1.459Z" transform="translate(-555.453 -215.042)" fill="#d2d2d2"/>
    <path id="Path_1167" data-name="Path 1167" d="M960.66,271.637H930.369a.73.73,0,0,1,0-1.459H960.66a.73.73,0,1,1,0,1.459Z" transform="translate(-617.541 -215.431)" fill="#d2d2d2"/>
    <circle id="Ellipse_35" data-name="Ellipse 35" cx="5.63" cy="5.63" r="5.63" transform="translate(202.758 34.215)" fill="#0089ea"/>
    <circle id="Ellipse_36" data-name="Ellipse 36" cx="5.63" cy="5.63" r="5.63" transform="translate(242.519 34.215)" fill="#0089ea"/>
    <circle id="Ellipse_37" data-name="Ellipse 37" cx="5.63" cy="5.63" r="5.63" transform="translate(282.281 34.215)" fill="#0089ea"/>
    <circle id="Ellipse_38" data-name="Ellipse 38" cx="5.63" cy="5.63" r="5.63" transform="translate(322.974 34.215)" fill="#0089ea"/>
  </g>
</svg>
