<svg xmlns="http://www.w3.org/2000/svg" width="324" height="233.955" viewBox="0 0 324 233.955">
  <g id="Group_312" data-name="Group 312" transform="translate(0)">
    <rect id="Rectangle_187" data-name="Rectangle 187" width="2.884" height="113.923" transform="translate(281.341 113.958)" fill="#3f3d56"/>
    <path id="Path_1270" data-name="Path 1270" d="M971.637,315.761c.184,39.836-27.843,72.259-27.843,72.259s-28.325-32.164-28.508-72,27.843-72.259,27.843-72.259S971.452,275.924,971.637,315.761Z" transform="translate(-660.794 -187.285)" fill="#3f3d56"/>
    <rect id="Rectangle_188" data-name="Rectangle 188" width="1.483" height="58.593" transform="translate(225.075 167.56)" fill="#3f3d56"/>
    <path id="Path_1271" data-name="Path 1271" d="M796.917,558.68c.094,20.489-14.32,37.165-14.32,37.165s-14.568-16.543-14.662-37.031,14.32-37.165,14.32-37.165S796.822,538.191,796.917,558.68Z" transform="translate(-556.669 -383.653)" fill="#3f3d56"/>
    <ellipse id="Ellipse_59" data-name="Ellipse 59" cx="40.19" cy="6.16" rx="40.19" ry="6.16" transform="translate(215.607 221.634)" fill="#3f3d56"/>
    <path id="Path_1272" data-name="Path 1272" d="M867.744,323.767c-3.4-5.753-10.141-6.021-10.141-6.021s-6.564-.839-10.775,7.923c-3.925,8.167-9.342,16.053-.872,17.965l1.53-4.762.948,5.116a33.126,33.126,0,0,0,3.624.062c9.07-.293,17.708.086,17.43-3.169C869.117,336.553,871.02,329.3,867.744,323.767Z" transform="translate(-608.633 -239.55)" fill="#2f2e41"/>
    <path id="Path_1273" data-name="Path 1273" d="M889.234,369.6s4.4,6.161,1.76,11.148,6.161,10.267,6.161,10.267l6.454-14.081s-7.627-4.987-5.574-9.681Z" transform="translate(-642.385 -274.553)" fill="#fbbebe"/>
    <circle id="Ellipse_60" data-name="Ellipse 60" cx="7.627" cy="7.627" r="7.627" transform="translate(242.155 82.437)" fill="#fbbebe"/>
    <path id="Path_1274" data-name="Path 1274" d="M809.255,348.752l6.374-8.224s2.244-8.62,5.5-8.183-1.284,10.338-1.284,10.338l-6.333,9.1Z" transform="translate(-585.868 -249.871)" fill="#fbbebe"/>
    <path id="Path_1275" data-name="Path 1275" d="M871.469,707.9l2.054,10.854,4.4,1.173-1.173-12.908Z" transform="translate(-615.819 -499.609)" fill="#fbbebe"/>
    <path id="Path_1276" data-name="Path 1276" d="M1022.47,664.362l7.92,10.854,3.227,1.467,2.64-4.4-7.921-10.267Z" transform="translate(-722.524 -467.81)" fill="#fbbebe"/>
    <path id="Path_1277" data-name="Path 1277" d="M876.122,403.992l-4.893-6.442s-9.481,1.748-10.361,2.628,2.347,17.015,2.347,17.015.587,4.4,3.227,6.747l2.64,1.76,21.708-4.4.816-9.659a25.349,25.349,0,0,0-6.683-19.383h0l-3.777.516Z" transform="translate(-622.233 -292.219)" fill="#0087e8"/>
    <path id="Path_1278" data-name="Path 1278" d="M813.645,390.166l-1.467-.587-6.747-.587s-2.347-.587-1.76-1.76,1.173-1.467,0-1.76-1.467-.587-1.173-1.467a11.68,11.68,0,0,1,2.053-2.64l-4.987-4.107s-.27.191-.706.544c-2.476,2-10.311,9.238-4.574,16.47,6.747,8.507,14.668,13.494,21.122,11.734Z" transform="translate(-573.837 -281.62)" fill="#0087e8"/>
    <path id="Path_1279" data-name="Path 1279" d="M882.561,494.191V498.3s-2.64,4.987-1.76,9.681,1.173,7.041,1.173,7.041a40.043,40.043,0,0,0,2.053,11.734c2.054,5.867-4.694,44.3,3.814,44.883s13.2,1.173,15.841-1.76-4.4-53.391-4.4-53.391,24.055,50.164,29.042,48.11,17.6-6.747,16.135-9.387S906.03,493.9,906.03,493.9l-1.173-2.64Z" transform="translate(-636.3 -362.177)" fill="#2f2e41"/>
    <path id="Path_1280" data-name="Path 1280" d="M917.5,791.2s-4.694-.293-4.694,1.174-2.347,6.454-2.347,6.454-1.76,5.867,2.934,5.28,7.627-5.867,7.627-5.867l-1.173-5.574Z" transform="translate(-657.153 -574.113)" fill="#2f2e41"/>
    <path id="Path_1281" data-name="Path 1281" d="M1093.007,749.157s-4.107-2.64-3.814-.88.587,6.454,2.64,6.747,8.214,2.054,8.507,2.64,7.334,2.933,7.334-.88-4.4-6.747-4.4-6.747l-4.987-3.814s-3.227-.293-3.814,1.76S1093.007,749.157,1093.007,749.157Z" transform="translate(-783.675 -542.337)" fill="#2f2e41"/>
    <circle id="Ellipse_61" data-name="Ellipse 61" cx="4.871" cy="4.871" r="4.871" transform="translate(244.923 73.353)" fill="#2f2e41"/>
    <path id="Path_1282" data-name="Path 1282" d="M878.452,301.8a4.871,4.871,0,0,1,4.358-4.843,4.925,4.925,0,0,0-.512-.027,4.871,4.871,0,1,0,0,9.742,4.938,4.938,0,0,0,.513-.027A4.871,4.871,0,0,1,878.452,301.8Z" transform="translate(-634.041 -224.852)" fill="#2f2e41"/>
    <path id="Path_1283" data-name="Path 1283" d="M835.385,276.793l-6.655-3.486-9.191,1.426-1.9,8.4,4.733-.182,1.323-3.085V282.9l2.184-.084,1.268-4.912.792,5.229,7.765-.158Z" transform="translate(-577.78 -193.131)" fill="#2f2e41"/>
    <path id="Path_1284" data-name="Path 1284" d="M879.86,490.859l-10.264.278s-8.758,1.7-8.267-1.831,9.035-2.3,9.035-2.3l9.352-1.427Z" transform="translate(-622.653 -358.165)" fill="#fbbebe"/>
    <path id="Path_1285" data-name="Path 1285" d="M925.982,390.5a2.19,2.19,0,0,1,2.416,1.5c2.009,6.332,8.2,27.521,2.049,30.428-7.244,3.424-12.53,3.273-12.53,3.273l-2.829-6.967,2.576-2.417,2.75-17.682,1.318-7.5Z" transform="translate(-660.655 -290.961)" fill="#0087e8"/>
    <path id="Path_1286" data-name="Path 1286" d="M870.41,379.515l-1.173,11.734-10.267,4.4,11.441-2.64Z" transform="translate(-606.986 -268.182)" opacity="0.4"/>
    <path id="Path_1287" data-name="Path 1287" d="M746.472,298.7h0a13.741,13.741,0,0,1,8.024,5.829l.959,1.486.048.062,16.834,4.926a1.227,1.227,0,0,1,.839,1.5L771.87,317.3a1.227,1.227,0,0,1-1.514.859l-16.839-4.706h0l-1.691.639a15.112,15.112,0,0,1-9.716.33h0Z" transform="translate(-538.421 -226.111)" fill="#3f3d56"/>
    <ellipse id="Ellipse_62" data-name="Ellipse 62" cx="1.028" cy="1.927" rx="1.028" ry="1.927" transform="translate(221.79 86.394) rotate(-73.69)" fill="#575a89"/>
    <circle id="Ellipse_63" data-name="Ellipse 63" cx="0.707" cy="0.707" r="0.707" transform="translate(224.213 85.581)" fill="#3f3d56"/>
    <ellipse id="Ellipse_64" data-name="Ellipse 64" cx="8.24" cy="3.726" rx="8.24" ry="3.726" transform="matrix(0.308, -0.951, 0.951, 0.308, 199.828, 87.211)" fill="#6c63ff"/>
    <path id="Path_1288" data-name="Path 1288" d="M746.093,307.674c1.353-4.171.985-8.059-.8-8.9a1.733,1.733,0,0,1,.316.07c1.958.635,2.407,4.659,1,8.988s-4.129,7.324-6.087,6.689a1.722,1.722,0,0,1-.208-.083C742.247,314.678,744.763,311.775,746.093,307.674Z" transform="translate(-537.157 -226.156)" opacity="0.4"/>
    <path id="Path_1289" data-name="Path 1289" d="M256.038,123.852,217.832,94.216a252.845,252.845,0,0,1-19.425-16.834C187.517,67,172.732,58.7,155.519,54.282,113.7,43.546,80.567,62.582,65.5,90.534c-23.027,42.714-40.674,112.026,61.427,75.131,22.329-8.069,44.932-8.927,62.07-13.177l62.056-12.795Z" transform="translate(-47.766 -51.242)" fill="#0087e8"/>
    <circle id="Ellipse_65" data-name="Ellipse 65" cx="2.053" cy="2.053" r="2.053" transform="translate(91.517 18.632)" fill="#f2f2f2"/>
    <path id="Path_1290" data-name="Path 1290" d="M452.122,85.407h-.535v-.534h-.1v.534h-.534v.1h.534v.535h.1v-.535h.535Z" transform="translate(-318.661 -59.975)" fill="#f2f2f2"/>
    <path id="Path_1291" data-name="Path 1291" d="M635.122,237.407h-.534v-.535h-.1v.535h-.534v.1h.534v.535h.1v-.535h.534Z" transform="translate(-447.977 -167.385)" fill="#f2f2f2"/>
    <path id="Path_1292" data-name="Path 1292" d="M622.122,284.407h-.534v-.534h-.1v.534h-.534v.1h.534v.534h.1v-.534h.534Z" transform="translate(-438.791 -200.597)" fill="#f2f2f2"/>
    <path id="Path_1293" data-name="Path 1293" d="M63.122,324.407h-.534v-.534h-.1v.534h-.534v.1h.534v.534h.1v-.534h.534Z" transform="translate(-43.776 -228.863)" fill="#f2f2f2"/>
    <path id="Path_1294" data-name="Path 1294" d="M143.122,106.407h-.535v-.535h-.1v.535h-.534v.1h.534v.534h.1v-.534h.535Z" transform="translate(-100.308 -74.815)" fill="#f2f2f2"/>
    <path id="Path_1295" data-name="Path 1295" d="M454.122,292.407h-.534v-.534h-.1v.534h-.535v.1h.535v.534h.1v-.534h.534Z" transform="translate(-320.074 -206.251)" fill="#f2f2f2"/>
    <path id="Path_1296" data-name="Path 1296" d="M263.122,42.407h-.534v-.534h-.1v.534h-.534v.1h.534v.535h.1v-.535h.534Z" transform="translate(-185.105 -29.589)" fill="#f2f2f2"/>
    <path id="Path_1297" data-name="Path 1297" d="M312.811,238.915l-.666.1c.208,1.332.372,2.693.493,4.039l.672-.059C313.189,241.634,313.022,240.261,312.811,238.915Z" transform="translate(-234.588 -183.86)" fill="#e6e6e6"/>
    <path id="Path_1298" data-name="Path 1298" d="M306.65,211.575l-.645.2c.39,1.291.739,2.614,1.036,3.931l.66-.15C307.4,214.221,307.043,212.883,306.65,211.575Z" transform="translate(-230.249 -164.541)" fill="#e6e6e6"/>
    <path id="Path_1299" data-name="Path 1299" d="M296.818,185.355l-.613.282c.563,1.229,1.091,2.491,1.569,3.752l.631-.238C297.921,187.875,297.39,186.6,296.818,185.355Z" transform="translate(-223.324 -146.012)" fill="#e6e6e6"/>
    <path id="Path_1300" data-name="Path 1300" d="M283.524,160.775l-.569.361c.725,1.138,1.42,2.318,2.065,3.5l.593-.323C284.961,163.116,284.257,161.925,283.524,160.775Z" transform="translate(-213.961 -128.643)" fill="#e6e6e6"/>
    <path id="Path_1301" data-name="Path 1301" d="M267,138.245l-.513.437c.874,1.027,1.725,2.1,2.529,3.186l.54-.4C268.744,140.369,267.884,139.283,267,138.245Z" transform="translate(-202.323 -112.722)" fill="#e6e6e6"/>
    <path id="Path_1302" data-name="Path 1302" d="M247.574,118.185l-.449.5c1.009.9,2,1.848,2.939,2.813l.484-.472C249.6,120.051,248.595,119.094,247.574,118.185Z" transform="translate(-188.642 -98.547)" fill="#e6e6e6"/>
    <path id="Path_1303" data-name="Path 1303" d="M225.623,100.965l-.378.557c1.121.754,2.229,1.558,3.294,2.388l.417-.531C227.876,102.54,226.756,101.728,225.623,100.965Z" transform="translate(-173.181 -86.379)" fill="#e6e6e6"/>
    <path id="Path_1304" data-name="Path 1304" d="M206.4,89.005v.763c.7.367,1.4.751,2.077,1.144l.337-.584Q207.631,89.642,206.4,89.005Z" transform="translate(-159.868 -77.928)" fill="#e6e6e6"/>
    <path id="Path_1305" data-name="Path 1305" d="M314.57,267.191l.674-.012c.012.681.013,1.365,0,2.035l-.674-.01C314.583,268.542,314.582,267.865,314.57,267.191Z" transform="translate(-236.302 -203.833)" fill="#e6e6e6"/>
    <path id="Path_1306" data-name="Path 1306" d="M177.811,435.915l-.666.1c.208,1.332.373,2.693.493,4.039l.672-.059C178.189,438.634,178.022,437.261,177.811,435.915Z" transform="translate(-139.191 -323.069)" fill="#e6e6e6"/>
    <path id="Path_1307" data-name="Path 1307" d="M171.65,408.575l-.645.2c.39,1.291.739,2.614,1.036,3.931l.66-.15C172.4,411.221,172.043,409.883,171.65,408.575Z" transform="translate(-134.852 -303.75)" fill="#e6e6e6"/>
    <path id="Path_1308" data-name="Path 1308" d="M161.818,382.355l-.613.282c.563,1.229,1.091,2.491,1.569,3.752l.631-.238C162.921,384.875,162.39,383.6,161.818,382.355Z" transform="translate(-127.927 -285.222)" fill="#e6e6e6"/>
    <path id="Path_1309" data-name="Path 1309" d="M148.524,357.775l-.569.361c.725,1.138,1.42,2.317,2.065,3.5l.593-.323C149.962,360.116,149.257,358.925,148.524,357.775Z" transform="translate(-118.564 -267.852)" fill="#e6e6e6"/>
    <path id="Path_1310" data-name="Path 1310" d="M132,335.245l-.513.437c.874,1.027,1.725,2.1,2.529,3.186l.54-.4C133.744,337.369,132.884,336.283,132,335.245Z" transform="translate(-106.926 -251.931)" fill="#e6e6e6"/>
    <path id="Path_1311" data-name="Path 1311" d="M112.574,315.185l-.449.5c1.009.9,2,1.848,2.939,2.813l.484-.472C114.6,317.051,113.595,316.094,112.574,315.185Z" transform="translate(-93.245 -237.756)" fill="#e6e6e6"/>
    <path id="Path_1312" data-name="Path 1312" d="M90.623,297.965l-.378.557c1.121.754,2.229,1.558,3.294,2.388l.417-.531C92.876,299.54,91.756,298.728,90.623,297.965Z" transform="translate(-77.784 -225.588)" fill="#e6e6e6"/>
    <path id="Path_1313" data-name="Path 1313" d="M71.4,286v.763c.7.367,1.4.751,2.077,1.144l.337-.584Q72.631,286.641,71.4,286Z" transform="translate(-64.47 -217.136)" fill="#e6e6e6"/>
    <path id="Path_1314" data-name="Path 1314" d="M179.57,464.191l.674-.012c.012.681.013,1.365,0,2.035l-.674-.011C179.583,465.542,179.582,464.865,179.57,464.191Z" transform="translate(-140.905 -343.042)" fill="#e6e6e6"/>
    <path id="Path_1315" data-name="Path 1315" d="M639.811,336.915l-.666.1c.208,1.332.373,2.693.493,4.039l.672-.059C640.189,339.634,640.022,338.261,639.811,336.915Z" transform="translate(-465.661 -253.112)" fill="#e6e6e6"/>
    <path id="Path_1316" data-name="Path 1316" d="M633.65,309.575l-.645.2c.39,1.291.739,2.614,1.036,3.931l.66-.15C634.4,312.221,634.043,310.883,633.65,309.575Z" transform="translate(-461.322 -233.792)" fill="#e6e6e6"/>
    <path id="Path_1317" data-name="Path 1317" d="M623.818,283.355l-.613.282c.563,1.229,1.091,2.491,1.569,3.752l.631-.238C624.921,285.875,624.39,284.6,623.818,283.355Z" transform="translate(-454.397 -215.264)" fill="#e6e6e6"/>
    <path id="Path_1318" data-name="Path 1318" d="M610.524,258.775l-.569.361c.725,1.138,1.42,2.318,2.065,3.5l.593-.323C611.961,261.116,611.257,259.925,610.524,258.775Z" transform="translate(-445.034 -197.894)" fill="#e6e6e6"/>
    <path id="Path_1319" data-name="Path 1319" d="M594,236.245l-.513.437c.874,1.027,1.725,2.1,2.529,3.186l.54-.4C595.744,238.369,594.884,237.283,594,236.245Z" transform="translate(-433.396 -181.974)" fill="#e6e6e6"/>
    <path id="Path_1320" data-name="Path 1320" d="M574.574,216.185l-.449.5c1.009.9,2,1.848,2.939,2.813l.484-.472C576.595,218.051,575.595,217.094,574.574,216.185Z" transform="translate(-419.715 -167.798)" fill="#e6e6e6"/>
    <path id="Path_1321" data-name="Path 1321" d="M552.623,198.965l-.378.557c1.121.754,2.229,1.558,3.294,2.388l.417-.531C554.876,200.54,553.756,199.728,552.623,198.965Z" transform="translate(-404.254 -155.63)" fill="#e6e6e6"/>
    <path id="Path_1322" data-name="Path 1322" d="M533.4,187v.763c.7.367,1.4.751,2.077,1.144l.337-.584Q534.631,187.642,533.4,187Z" transform="translate(-390.941 -147.178)" fill="#e6e6e6"/>
    <path id="Path_1323" data-name="Path 1323" d="M641.57,365.191l.674-.012c.013.681.013,1.365,0,2.035l-.674-.011C641.583,366.542,641.582,365.865,641.57,365.191Z" transform="translate(-467.375 -273.084)" fill="#e6e6e6"/>
    <path id="Path_1324" data-name="Path 1324" d="M146.665,198.7h-.5v-.5h-.1v.5h-.5v.1h.5v.5h.1v-.5h.5Z" transform="translate(-102.869 -140.056)" fill="#f2f2f2"/>
    <path id="Path_1325" data-name="Path 1325" d="M127.124,301.053h-.5v-.5h-.1v.5h-.5v.1h.5v.5h.1v-.5h.5Z" transform="translate(-89.06 -212.386)" fill="#f2f2f2"/>
    <path id="Path_1326" data-name="Path 1326" d="M69.787,390.761h-.5v-.5h-.1v.5h-.5v.1h.5v.5h.1v-.5h.5Z" transform="translate(-48.543 -275.778)" fill="#f2f2f2"/>
    <path id="Path_1327" data-name="Path 1327" d="M264.844,194.2a36.027,36.027,0,1,1,16.716,13.421A11.654,11.654,0,1,1,264.844,194.2Z" transform="translate(-196.81 -112.594)" fill="#fff"/>
    <path id="Path_1328" data-name="Path 1328" d="M348.84,190.679c8.259,0,13.941,4.581,13.941,11.166,0,4.361-2.114,7.378-6.189,9.779-3.832,2.224-5.132,3.854-5.132,6.673h0a1.74,1.74,0,0,1-1.74,1.74H345.5a1.74,1.74,0,0,1-1.739-1.679l-.007-.215c-.374-4.537,1.211-7.356,5.2-9.691,3.722-2.224,5.286-3.634,5.286-6.365s-2.643-4.735-5.924-4.735a5.643,5.643,0,0,0-5.374,3.2,3.888,3.888,0,0,1-3.553,2.222h0a3.822,3.822,0,0,1-3.413-5.571C338.089,193.2,342.554,190.679,348.84,190.679Zm-5.793,37.75a4.728,4.728,0,1,1,4.713,4.537A4.613,4.613,0,0,1,343.048,228.429Z" transform="translate(-251.116 -149.775)" fill="#0087e8"/>
  </g>
</svg>
