<svg xmlns="http://www.w3.org/2000/svg" width="220" height="205.762" viewBox="0 0 220 205.762">
  <g id="Group_357" data-name="Group 357" transform="translate(0 -0.004)">
    <path id="Path_1366" data-name="Path 1366" d="M831.279,591.721l9.869,1.542a32.229,32.229,0,0,0,6.709-13.981c-7.217,5.907-18.191,2.768-26.942,5.993a19.387,19.387,0,0,0-11.6,12.159l-4.823,5.189a32.486,32.486,0,0,0,27.159-1.5,31.38,31.38,0,0,0,6.395-4.591C834.594,594.363,831.279,591.721,831.279,591.721Z" transform="translate(-627.91 -434.303)" fill="#f2f2f2"/>
    <path id="Path_1367" data-name="Path 1367" d="M836.412,530.634l9.521-3.021a32.231,32.231,0,0,0-.231-15.506c-3.825,8.506-15.047,10.591-21.441,17.38a19.387,19.387,0,0,0-4.958,16.055l-2,6.8a32.486,32.486,0,0,0,23.642-13.451,31.379,31.379,0,0,0,3.676-6.961C840.559,531.521,836.412,530.634,836.412,530.634Z" transform="translate(-636.547 -389.001)" fill="#f2f2f2"/>
    <path id="Path_1368" data-name="Path 1368" d="M482.165,659.823a.386.386,0,0,1-.387.387H262.552a.387.387,0,1,1,0-.775H481.778a.386.386,0,0,1,.387.388Z" transform="translate(-262.165 -488.358)" fill="#ccc"/>
    <circle id="Ellipse_68" data-name="Ellipse 68" cx="70.005" cy="70.005" r="70.005" transform="translate(20.838 14.937)" fill="#e6e6e6"/>
    <path id="Path_1369" data-name="Path 1369" d="M476.636,270.128a60.153,60.153,0,0,1-24.313,48.355c-.5.378-1.019.746-1.537,1.1a60.246,60.246,0,0,1-68.774,0c-.518-.358-1.032-.726-1.537-1.1a60.243,60.243,0,0,1,0-96.711c.5-.378,1.019-.746,1.537-1.1a60.247,60.247,0,0,1,68.774,0c.518.358,1.032.726,1.537,1.1A60.153,60.153,0,0,1,476.636,270.128Z" transform="translate(-325.557 -185.187)" fill="#fff"/>
    <path id="Path_1400" data-name="Path 1400" d="M55.027,0A55.027,55.027,0,1,1,0,55.027,55.027,55.027,0,0,1,55.027,0Z" transform="translate(35.816 29.915)" fill="#0087e8"/>
    <path id="Path_1370" data-name="Path 1370" d="M531.624,226.365c-.834,0-1.663.022-2.488.059a55.025,55.025,0,0,1-2.33,109.783c1.588.138,3.195.212,4.818.212a55.027,55.027,0,1,0,0-110.054Z" transform="translate(-440.638 -196.297)" opacity="0.2"/>
    <path id="Path_1371" data-name="Path 1371" d="M537.954,213.892a1.794,1.794,0,0,0-1.791,1.791V223.5a1.791,1.791,0,0,0,3.582,0v-7.814A1.794,1.794,0,0,0,537.954,213.892Z" transform="translate(-446.949 -187.885)" fill="#fff"/>
    <path id="Path_1372" data-name="Path 1372" d="M635.251,244.088c-.5-.378-1.019-.746-1.537-1.1a1.79,1.79,0,0,0-1.6.778l-4.4,6.457a1.79,1.79,0,1,0,2.96,2.015l4.4-6.457A1.779,1.779,0,0,0,635.251,244.088Z" transform="translate(-508.484 -207.502)" fill="#fff"/>
    <path id="Path_1373" data-name="Path 1373" d="M690.732,334.491a1.789,1.789,0,0,0-2.331-.983l-7.241,2.94a1.791,1.791,0,1,0,1.348,3.318l7.241-2.94A1.8,1.8,0,0,0,690.732,334.491Z" transform="translate(-543.98 -268.464)" fill="#fff"/>
    <path id="Path_1374" data-name="Path 1374" d="M438.079,250.219l-4.4-6.457a1.79,1.79,0,0,0-1.6-.778c-.518.358-1.032.726-1.537,1.1a1.779,1.779,0,0,0,.173,1.69l4.4,6.457a1.79,1.79,0,0,0,2.96-2.015Z" transform="translate(-375.629 -207.502)" fill="#fff"/>
    <path id="Path_1375" data-name="Path 1375" d="M378.749,336.448l-7.241-2.94a1.791,1.791,0,0,0-1.348,3.318l7.241,2.94a1.791,1.791,0,0,0,1.348-3.318Z" transform="translate(-334.243 -268.465)" fill="#fff"/>
    <path id="Path_1376" data-name="Path 1376" d="M537.954,540.892a1.794,1.794,0,0,0-1.791,1.791V550.5a1.791,1.791,0,0,0,3.582,0v-7.814A1.794,1.794,0,0,0,537.954,540.892Z" transform="translate(-446.949 -408.413)" fill="#fff"/>
    <path id="Path_1377" data-name="Path 1377" d="M635.078,523.217l-4.4-6.457a1.79,1.79,0,1,0-2.96,2.016l4.4,6.457a1.79,1.79,0,0,0,1.6.778c.518-.358,1.032-.726,1.537-1.1A1.779,1.779,0,0,0,635.078,523.217Z" transform="translate(-508.484 -391.611)" fill="#fff"/>
    <path id="Path_1378" data-name="Path 1378" d="M689.749,439.448l-7.241-2.94a1.791,1.791,0,1,0-1.348,3.318l7.241,2.94a1.791,1.791,0,0,0,1.348-3.318Z" transform="translate(-543.98 -337.928)" fill="#fff"/>
    <path id="Path_1379" data-name="Path 1379" d="M437.607,516.289a1.791,1.791,0,0,0-2.488.472l-4.4,6.457a1.779,1.779,0,0,0-.173,1.69c.5.378,1.019.746,1.537,1.1a1.789,1.789,0,0,0,1.6-.778l4.4-6.457a1.79,1.79,0,0,0-.472-2.488Z" transform="translate(-375.629 -391.611)" fill="#fff"/>
    <path id="Path_1380" data-name="Path 1380" d="M379.732,437.491a1.788,1.788,0,0,0-2.331-.983l-7.241,2.94a1.791,1.791,0,1,0,1.348,3.318l7.241-2.94a1.8,1.8,0,0,0,.983-2.335Z" transform="translate(-334.243 -337.927)" fill="#fff"/>
    <path id="Path_1381" data-name="Path 1381" d="M467.577,385.708a3.749,3.749,0,0,1-3.064,4.319l-31.778,5.405a3.744,3.744,0,0,1-1.256-7.383l31.778-5.405a3.749,3.749,0,0,1,4.319,3.064Z" transform="translate(-374.248 -301.655)" fill="#3f3d56"/>
    <path id="Path_1382" data-name="Path 1382" d="M572.015,421.375a2.445,2.445,0,0,1-3.453.014l-34.209-33.94a2.442,2.442,0,0,1,3.44-3.467L572,417.922A2.445,2.445,0,0,1,572.015,421.375Z" transform="translate(-445.241 -302.115)" fill="#3f3d56"/>
    <circle id="Ellipse_70" data-name="Ellipse 70" cx="4.233" cy="4.233" r="4.233" transform="translate(86.61 80.709)" fill="#ccc"/>
    <path id="Path_1383" data-name="Path 1383" d="M377.1,145.57c-6.5,10.215-16.411,16.994-28.637,21.448a2.3,2.3,0,0,1-3.217-.462h0a20.188,20.188,0,1,1,32.132-24.448l.184.245a2.3,2.3,0,0,1-.462,3.217Z" transform="translate(-315.412 -134.027)" fill="#e6e6e6"/>
    <path id="Path_1384" data-name="Path 1384" d="M628.521,142.107a20.189,20.189,0,1,1,32.132,24.448h0a2.3,2.3,0,0,1-3.217.462c-11.35-4.345-20.657-11.865-28.637-21.448a2.3,2.3,0,0,1-.462-3.217Z" transform="translate(-508.801 -134.027)" fill="#e6e6e6"/>
    <path id="Path_1385" data-name="Path 1385" d="M619.21,580.69a1.794,1.794,0,0,0-.688,2.437L628.857,601.6a1.791,1.791,0,1,0,3.126-1.749l-10.335-18.469A1.794,1.794,0,0,0,619.21,580.69Z" transform="translate(-502.338 -435.099)" fill="#e6e6e6"/>
    <path id="Path_1386" data-name="Path 1386" d="M431.854,581.376l-10.335,18.469a1.791,1.791,0,0,0,3.126,1.749l10.335-18.469a1.791,1.791,0,0,0-3.125-1.749Z" transform="translate(-369.479 -435.097)" fill="#e6e6e6"/>
    <circle id="Ellipse_71" data-name="Ellipse 71" cx="5.535" cy="5.535" r="5.535" transform="translate(123.077 160.156)" fill="#e6e6e6"/>
    <circle id="Ellipse_72" data-name="Ellipse 72" cx="5.535" cy="5.535" r="5.535" transform="translate(126.984 18.518)" fill="#e6e6e6"/>
    <circle id="Ellipse_73" data-name="Ellipse 73" cx="5.535" cy="5.535" r="5.535" transform="translate(84.982 5.494)" fill="#e6e6e6"/>
    <circle id="Ellipse_74" data-name="Ellipse 74" cx="5.535" cy="5.535" r="5.535" transform="translate(44.933 17.867)" fill="#e6e6e6"/>
    <circle id="Ellipse_75" data-name="Ellipse 75" cx="5.535" cy="5.535" r="5.535" transform="translate(48.514 160.156)" fill="#e6e6e6"/>
    <path id="Path_1387" data-name="Path 1387" d="M642.9,481.819a2.773,2.773,0,0,0,4.217.546l8.686,4.654-.466-5.1-8.177-3.638a2.788,2.788,0,0,0-4.26,3.537Z" transform="translate(-518.629 -365.672)" fill="#ffb7b7"/>
    <path id="Path_1388" data-name="Path 1388" d="M663.264,486.468l3.4-4.7,16.4,7.751,20.4-3.829a6.991,6.991,0,0,1,8.28,6.858h0a7,7,0,0,1-6.978,7l-23.384.043Z" transform="translate(-532.665 -368.541)" fill="#3f3d56"/>
    <path id="Path_1389" data-name="Path 1389" d="M377.866,578.174l-3.444-1.647,4.731-14.394,5.082,2.431Z" transform="translate(-252.509 -379.098)" fill="#ffb7b7"/>
    <path id="Path_1390" data-name="Path 1390" d="M699.806,710.159c-.25.157-.5.311-.754.465-.5.309-1.012.612-1.52.911-.255.149-.513.3-.769.445v.007l-.015,0-.005,0-.39.1-.559-1.477-.258-.68-.364-.964L694.5,707.2l-3.516-9.283,5.466-1.348.2.837h0l.1.415,1.91,7.745.39,1.584.013.048.235.946.2.82.225.916Z" transform="translate(-551.362 -513.404)" fill="#ffb7b7"/>
    <path id="Path_1391" data-name="Path 1391" d="M723.991,603.784c-.347.557-.7,1.11-1.057,1.659q-.994,1.533-2.041,3.02s0,0-.005.005a7.144,7.144,0,0,1-1.341.979c-.02.015-.043.025-.063.038a4.944,4.944,0,0,1-1.128.453l-.427.106c-.511.121-1.017.225-1.52.316q-1.343.239-2.661.344c-.071.008-.142.013-.213.018a41.153,41.153,0,0,1-10.821-.863c-1.816-.344-3.67-.756-5.59-1.184-.627-.142-1.257-.281-1.895-.42-.048-.01-.1-.023-.149-.033-.911-.2-1.836-.4-2.785-.592-1.194-.245-2.426-.483-3.706-.708l.091,1.8a13.577,13.577,0,0,0,.855,4.055,7,7,0,0,1,.066,5.5l-.44,1.275a4.354,4.354,0,0,1-.448,3.852l-.089.134,3.67,9.286.238.6h-1.879l-2.312,0h-3.918l-5.653-11.342-.271-.541v-.028l.584-21.8c.008-.192.023-.387.048-.579a6.627,6.627,0,0,1,2.522-4.462,6.382,6.382,0,0,1,4.753-1.3l1.935.25,3.954.511,2.785.362.056.008,8.213,1.062.589-2.4.109-.04,3.458-1.267,11.96-4.384.03-.01.787-.288.094.152c.028.046.056.091.081.137a23.444,23.444,0,0,1,1.89,4.386,68.856,68.856,0,0,1,1.986,7.581q.034.167.061.3l.008.028c.008.043.013.071.015.078A7.072,7.072,0,0,1,723.991,603.784Z" transform="translate(-542.939 -439.629)" fill="#2f2e41"/>
    <path id="Path_1392" data-name="Path 1392" d="M701.965,588.68c-.038-.162-.086-.326-.137-.486a34.624,34.624,0,0,0-1.4-3.546c-.6-1.315-1.313-2.724-2.165-4.25q-.619-1.108-1.331-2.3-.357-.6-.741-1.222a.637.637,0,0,0-.033-.056l-.073-.121-11.833,1.583-4.406.589-.263,2.2-.063.544s0,0,0,0l-.177,1.482v0l-.235,1.958-.02,0-6.539-.847-6.739-.873-3.62-.468a6.378,6.378,0,0,0-4.753,1.3,6.63,6.63,0,0,0-2.522,4.462c-.023.177-.038.359-.046.539l-3.415,8.092a52.2,52.2,0,0,0-3.86,15.187l-2.5,8.006.357.033,5.307.493,1.4.132,3.086-4.505c.352-.513.685-1.042,1-1.583a24.072,24.072,0,0,0,1.363-2.742l6.675-15.885q.774.133,1.533.253,3.51.569,6.739.928a79.4,79.4,0,0,0,18.455.18q2.273-.277,4.394-.729.778-.163,1.535-.352c.119-.028.235-.056.352-.086a6.455,6.455,0,0,0,4.515-4.219,6.587,6.587,0,0,0,.167-3.686Z" transform="translate(-520.408 -432.558)" fill="#2f2e41"/>
    <path id="Path_1393" data-name="Path 1393" d="M623.668,733.927l-3.726-1.786-.584-.281-.933,2.292-6.516,1.434a1.546,1.546,0,0,0-.253,2.942l6.367,2.6,2.021-1.819-.5,2.441,2.4.979,2.628-8.365Z" transform="translate(-497.212 -537.201)" fill="#2f2e41"/>
    <path id="Path_1394" data-name="Path 1394" d="M458.7,593.34l.238.6H458.7Z" transform="translate(-309.348 -400.144)" fill="#2f2e41"/>
    <path id="Path_1395" data-name="Path 1395" d="M701.479,728.932l-3.9,1.353-.613.212.949,2.285-3.621,5.6a1.546,1.546,0,0,0,1.89,2.268l6.352-2.634.156-2.714,1.365,2.083,2.393-.992-4.018-7.793Z" transform="translate(-553.422 -535.005)" fill="#2f2e41"/>
    <path id="Path_1396" data-name="Path 1396" d="M771.306,526.723a1.434,1.434,0,0,1-.665-.165l-20.6-10.765-.238-.975-.449-3.084.006-.029,1.959-9.033c-.036-.078-.111-.2-.2-.348-.875-1.482-3.537-5.993,1.544-12.2l8.92-10.4,7.656-.329.087.11a19.94,19.94,0,0,1,3.39,18.523l-.8,14.4.855,2.908a8.024,8.024,0,0,1-.235,5.191l.2,4.708a1.438,1.438,0,0,1-1.431,1.5Z" transform="translate(-590.722 -366.937)" fill="#3f3d56"/>
    <path id="Path_1397" data-name="Path 1397" d="M753.148,634.891a2.773,2.773,0,0,0,.692-4.2l4.953-8.518-5.112.288-3.92,8.045a2.788,2.788,0,0,0,3.387,4.38Z" transform="translate(-590.436 -463.232)" fill="#ffb7b7"/>
    <path id="Path_1398" data-name="Path 1398" d="M758.551,542.056l-4.577-3.565,8.317-16.118-3.117-20.526a6.991,6.991,0,0,1,7.142-8.037h0a7,7,0,0,1,6.757,7.217L772.3,524.4Z" transform="translate(-593.839 -376.659)" fill="#3f3d56"/>
    <path id="a1ca5f83-7fa1-45b1-9d3b-bf096f25c0e5" d="M771.842,430.4v-7.576a10.151,10.151,0,0,1,20.3-.013v.013c1.789,3.728.67,5.5,0,7.576a1.365,1.365,0,0,1-1.363,1.363H773.206A1.365,1.365,0,0,1,771.842,430.4Z" transform="translate(-605.89 -321.938)" fill="#2f2e41"/>
    <circle id="Ellipse_76" data-name="Ellipse 76" cx="7.599" cy="7.599" r="7.599" transform="translate(165.177 94.136)" fill="#ffb7b7"/>
    <path id="Path_1399" data-name="Path 1399" d="M781.492,428.836c-.069-.011-.138-.025-.207-.036-1.185-.21-2.37-.417-3.552-.631l-.109-2.679-1.432,2.4a12.014,12.014,0,0,1-9.2-.881,25.967,25.967,0,0,1-2.755-1.519,10.07,10.07,0,0,1,4.948-7.126c.109-.062.214-.116.323-.17h0a0,0,0,0,0,0,0c.185-.087.373-.17.562-.246a8.37,8.37,0,0,1,8.786,1.7A10,10,0,0,1,781.492,428.836Z" transform="translate(-600.764 -325.11)" fill="#2f2e41"/>
  </g>
</svg>
