<svg xmlns="http://www.w3.org/2000/svg" width="58.657" height="63.776" viewBox="0 0 58.657 63.776">
  <g id="Group_311" data-name="Group 311" transform="translate(-1927.427 843)">
    <path id="Path_1267" data-name="Path 1267" d="M1954.816-706.033l15.173,1.588s11.472,14.063,14.8,15.543,6.291,6.106,6.291,6.106h-58.657l17.579-14.988Z" transform="translate(-5 -96.428)" fill="#0089ea"/>
    <circle id="Ellipse_58" data-name="Ellipse 58" cx="15.866" cy="15.866" r="15.866" transform="translate(1940.802 -834.087)" fill="#ffb6b6"/>
    <path id="Path_1265" data-name="Path 1265" d="M607.1,147.243c-1.63.743-2.686,6.125-3.967,4.874s-1.2-2.879-2.922-3.341a5.853,5.853,0,0,0-4.167.729c-.227.119-.447.249-.662.377-.142-.095-.283-.184-.434-.266a5.041,5.041,0,0,0-3.711-.417,4.947,4.947,0,0,1,2.444,1.8c-.426.285-.857.571-1.3.825-3.685,2.127-8.928-2.5-12.807-4.235,2.43,4.559,1.233,6.447-.876,11.163l-.073.268c.12-1.182-3.537-2.062-3.325-.4a20.032,20.032,0,0,0,1.745,4.849c-4.078-4.715-6.865-10.486-6.277-16.438a8.69,8.69,0,0,1,.734-3.655,2.855,2.855,0,0,1,3.183-1.426,10.52,10.52,0,0,1,15.837-9.626,40.206,40.206,0,0,1,4.19,3.247,8.748,8.748,0,0,0,4.774,2.13c1.123.054,2.344-.22,3.309.362,1.117.675,1.309,2.087,1.476,3.447a5.036,5.036,0,0,0-2.713,1.129,4.927,4.927,0,0,1,2.966.636.305.305,0,0,1,.049.028C605.164,145.551,605.1,146.049,607.1,147.243Z" transform="translate(1367.768 -973.875)" fill="#2f2e41"/>
  </g>
</svg>
