<svg xmlns="http://www.w3.org/2000/svg" width="22.96" height="26.871" viewBox="0 0 22.96 26.871">
  <g id="Group_454" data-name="Group 454" transform="translate(516.735 -3947)">
    <g id="Ellipse_88" data-name="Ellipse 88" transform="translate(-515 3947)" fill="none" stroke="#0087e8" stroke-width="1.5">
      <circle cx="4" cy="4" r="4" stroke="none"/>
      <circle cx="4" cy="4" r="3.25" fill="none"/>
    </g>
    <g id="Path_1501" data-name="Path 1501" transform="translate(-502 3952)" fill="none">
      <path d="M3,0A3,3,0,1,1,0,3,3,3,0,0,1,3,0Z" stroke="none"/>
      <path d="M 3 1.5 C 2.172899961471558 1.5 1.5 2.172899961471558 1.5 3 C 1.5 3.827100038528442 2.172899961471558 4.5 3 4.5 C 3.827100038528442 4.5 4.5 3.827100038528442 4.5 3 C 4.5 2.172899961471558 3.827100038528442 1.5 3 1.5 M 3 0 C 4.65684986114502 0 6 1.34315013885498 6 3 C 6 4.65684986114502 4.65684986114502 6 3 6 C 1.34315013885498 6 0 4.65684986114502 0 3 C 0 1.34315013885498 1.34315013885498 0 3 0 Z" stroke="none" fill="#0087e8"/>
    </g>
    <path id="Path_1499" data-name="Path 1499" d="M-512.613,3956.877h9.055v9.928h-1.921v7.316h-6.4v-7.316h-2.1v-9.928Z" transform="translate(-2 -1)" fill="none" stroke="#0087e8" stroke-width="1.5"/>
    <path id="Path_1500" data-name="Path 1500" d="M-512.872,3956.877h7.346v8.055h-1.558v5.936h-5.194v-5.936h-1.707v-8.055Z" transform="translate(11 2.253)" fill="none" stroke="#0087e8" stroke-width="1.5"/>
  </g>
</svg>
