<svg xmlns="http://www.w3.org/2000/svg" width="710.477" height="713.401" viewBox="0 0 710.477 713.401">
  <g id="Group_489" data-name="Group 489" transform="translate(73.397 -358.898)">
    <g id="Group_487" data-name="Group 487">
      <g id="Group_362" data-name="Group 362" transform="translate(678.813 -4885.118) rotate(51)" opacity="0.46">
        <path id="Path_1338" data-name="Path 1338" d="M91.714,356.76h69.772v95.107H96.815c-.165.983-.33,1.959-.516,2.943h65.186V531.5a.98.98,0,0,1-.323-.124q-2.75-1.093-5.5-2.317c-.392-.179-.777-.364-1.176-.536q-2.75-1.3-5.5-2.75c-.639-.337-1.279-.688-1.9-1.045a114.429,114.429,0,0,1-27.433-21.355c-.241-.227-.461-.474-.688-.688-1.114-1.21-2.207-2.434-3.266-3.685-.4-.461-.784-.928-1.176-1.375-1.251-1.526-2.461-3.108-3.63-4.7-.179-.241-.344-.474-.516-.687a101.563,101.563,0,0,1-11.826-21.382c-.1-.227-.186-.474-.275-.688-.949-2.406-1.808-4.847-2.551-7.336-.316-1.038-.626-2.063-.887-3.142-.1-.309-.172-.626-.254-.935-3.864-15.229-4.311-31.056-4.311-46.808v-5.5q.083-9.646.227-19.272.055-2.475.1-4.971.144-6.319.413-12.665c.041-1.169.1-2.344.158-3.506q.041-1.011.1-2.021Q91.459,360.363,91.714,356.76Z" transform="translate(3666.56 3460.764)" fill="#0087e8" opacity="0.1"/>
        <path id="Path_1339" data-name="Path 1339" d="M176.455,180.762H138.18a291.339,291.339,0,0,1,20.358-28.01c5.693-6.985,11.688-13.792,17.917-20.351Z" transform="translate(3651.59 3530.867)" fill="#0087e8" opacity="0.1"/>
        <path id="Path_1340" data-name="Path 1340" d="M162.242,207V307.023H92.69c0-.289.041-.584.069-.873.062-.791.124-1.574.193-2.365.069-.921.158-1.843.248-2.75s.179-2.008.289-3,.2-2.008.309-3,.22-1.994.344-2.984.234-1.994.371-2.984c.1-.818.206-1.643.323-2.468.158-1.162.323-2.324.5-3.479a3.307,3.307,0,0,1,.083-.523,239.908,239.908,0,0,1,5.115-25.109,185.919,185.919,0,0,1,8.629-25.439A191.049,191.049,0,0,1,122.137,207Z" transform="translate(3665.804 3507.558)" fill="#0087e8" opacity="0.1"/>
        <path id="Path_1341" data-name="Path 1341" d="M218.09,251.087v95.107H333.956V251.087Zm0,98.05v81.68c.663.172,1.315.344,1.972.488.882.22,1.769.419,2.673.591l.535.1c.353.076.711.137,1.069.193.893.165,1.785.289,2.673.4.417.055.85.1,1.272.144l1.032.1h0c.561.055,1.117.1,1.673.124.342,0,.684.034,1.032.048s.535,0,.812,0H235.8a11.432,11.432,0,0,0,1.374-.055h.027a6.374,6.374,0,0,0,.957-.048,1.831,1.831,0,0,0,.273,0,5.017,5.017,0,0,0,.791-.041.87.87,0,0,1,.182,0c.593-.048,1.192-.11,1.8-.179s1.176-.151,1.78-.234l1.213-.193a86.36,86.36,0,0,0,14.673-4.015c10.814-3.878,21.382-9.3,32.19-13.269,13.962-5.122,29.4-7.645,42.891-1.409V349.137ZM333.956,145.192V18.575a117.591,117.591,0,0,0-37.642,5.672c-29.341,9.481-55.688,30.045-78.224,56.31v64.629h5.832v2.936H218.09V248.144H333.956V148.121H247.778v-2.943ZM482.814,102.42c-7.259-.33-14.475-3.28-21.007-7.852-12.476-8.725-22.451-22.214-33.59-33.586-23.145-23.7-51.85-38.007-81.3-41.555V145.192H512.31l.412-.557Zm15.069-3.438,15.977,22.558V93.049c-5.377.873-10.06,2.9-15.977,5.906ZM513.861,451.1V349.137H479.789c-.086-.433-.182-.873-.289-1.313.1.44.192.88.283,1.313H346.919v73.732c1.261,1.2,2.507,2.475,3.742,3.754h0q2,2.1,3.972,4.256l1.326,1.409c.636.688,1.283,1.375,1.924,2.028q1.93,2,3.886,3.96.978.99,1.967,1.946a272.965,272.965,0,0,0,32.949,27.715c2.577,1.85,5.18,3.63,7.8,5.37q2.614,1.733,5.265,3.4,3.977,2.5,8.018,4.813h0a247.158,247.158,0,0,0,78.043,29.234q8.97,1.7,18.019,2.681V451.085h.535ZM346.919,148.121V248.144H513.861V148.121Zm0,102.952v95.121H513.861V251.087Zm179.9-158.162v31.833L547.2,95.957A168.536,168.536,0,0,0,526.818,92.912Zm0,158.175v95.107H689.184V251.087ZM688.612,458.641l.572-109.5H526.818v165.4a227.6,227.6,0,0,0,31.377-.488h.182q7.484-.619,14.9-1.76h.112a227.648,227.648,0,0,0,76.562-26.305m70.559-219.277q-.925-2.75-1.9-5.5c-1.208-3.438-2.48-6.779-3.8-10.114H702.146v95.1H734.17c-.027-26.938-5.329-54.439-13.663-79.486Zm-18.361,82.429V443.33a137.931,137.931,0,0,0,22.13-38.392c6.6-17.525,9.622-36.488,9.873-55.808Zm0-125.765v24.751h11.482q-5.221-12.763-11.482-24.751ZM592.031,111.578c-.845-.419-1.694-.839-2.544-1.238a194.486,194.486,0,0,0-27.422-10.6l-31.206,44.044h0l-.609.846.4.557H641.717a225.237,225.237,0,0,0-49.685-33.607Zm52.946,36.543H529.095l-2.277,2.675v97.349H689.184V200.979A267.342,267.342,0,0,0,644.977,148.121Z" transform="translate(3626.622 3566.437)" fill="#0087e8" opacity="0.1"/>
        <path id="Path_1342" data-name="Path 1342" d="M162.242,280.39v49.565H92.69c0-.289.041-.584.069-.873.062-.791.124-1.574.193-2.365.069-.921.158-1.843.248-2.75s.179-2.008.289-3,.2-2.008.309-3,.22-1.994.344-2.984.234-1.994.371-2.984c.1-.818.206-1.643.323-2.468.158-1.162.323-2.324.5-3.479a3.307,3.307,0,0,1,.083-.523,239.9,239.9,0,0,1,5.115-25.109Z" transform="translate(3665.804 3484.626)" fill="#0087e8" opacity="0.1"/>
        <path id="Path_1343" data-name="Path 1343" d="M91.714,356.76h69.772v95.107H96.815c-.165.983-.33,1.959-.516,2.943h65.186V531.5a.98.98,0,0,1-.323-.124q-2.75-1.093-5.5-2.317c-.392-.179-.777-.364-1.176-.536q-2.75-1.3-5.5-2.75c-.639-.337-1.279-.688-1.9-1.045a114.429,114.429,0,0,1-27.433-21.355c-.241-.227-.461-.474-.688-.688-1.114-1.21-2.207-2.434-3.266-3.685-.4-.461-.784-.928-1.176-1.375-1.251-1.526-2.461-3.108-3.63-4.7-.179-.241-.344-.474-.516-.687a101.563,101.563,0,0,1-11.826-21.382c-.1-.227-.186-.474-.275-.688-.949-2.406-1.808-4.847-2.551-7.336-.316-1.038-.626-2.063-.887-3.142-.1-.309-.172-.626-.254-.935-3.864-15.229-4.311-31.056-4.311-46.808v-5.5q.083-9.646.227-19.272.055-2.475.1-4.971.144-6.319.413-12.665c.041-1.169.1-2.344.158-3.506q.041-1.011.1-2.021Q91.459,360.363,91.714,356.76Z" transform="translate(3666.56 3460.764)" fill="#0087e8" opacity="0.1"/>
        <path id="Path_1344" data-name="Path 1344" d="M254.6,196.094v85.695H202.13V196.094h7.48V167.08h30.706v29.014Z" transform="translate(3642.574 3532.792)" fill="#0087e8" opacity="0.1"/>
        <rect id="Rectangle_201" data-name="Rectangle 201" width="52.459" height="95.107" transform="translate(3844.705 3817.517)" fill="#0087e8" opacity="0.1"/>
        <path id="Path_1345" data-name="Path 1345" d="M218.09,499.37h52.459v79.067a135.878,135.878,0,0,1-18.873,4.008c-.523.076-1.038.137-1.561.193-.77.089-1.533.172-2.3.241l-2.3.186h-.234l-1.018.055h-.351c-.413,0-.818.048-1.231.055h-.034c-.591,0-1.176.041-1.767.055h-4.868a10.834,10.834,0,0,1-1.334-.055q-1.059-.041-2.145-.124h0l-1.327-.1c-.55-.041-1.1-.1-1.643-.151q-1.733-.151-3.438-.392l-1.375-.193-.688-.1c-1.148-.172-2.29-.364-3.438-.584-.853-.151-1.691-.323-2.537-.5Z" transform="translate(3626.622 3416.204)" fill="#0087e8" opacity="0.1"/>
        <rect id="Rectangle_202" data-name="Rectangle 202" width="43.26" height="95.809" transform="translate(4093.244 3718.766)" fill="#0087e8" opacity="0.1"/>
        <path id="Path_1346" data-name="Path 1346" d="M657.875,338.19V433.3H443.15V392.279H557.522v24.2h57.086V338.19Z" transform="translate(3497.503 3479.327)" fill="#0087e8" opacity="0.1"/>
        <path id="Path_1347" data-name="Path 1347" d="M674.506,600.756a3.88,3.88,0,0,1-.688-.041v62.394q-11.626-.956-23.17-2.674a379.06,379.06,0,0,1-100.422-29.221q-13.84-6.243-27.117-13.606a346.465,346.465,0,0,1-42.373-27.715q-5.074-3.878-10-7.927c-2.276-1.884-4.531-3.809-6.827-5.672-1.581-1.286-3.183-2.558-4.813-3.768V498.773H629.995c-.124-.44-.234-.873-.358-1.313.131.44.254.873.364,1.313h43.824V600.708C674.052,600.715,674.279,600.735,674.506,600.756Z" transform="translate(3481.464 3416.801)" fill="#0087e8" opacity="0.1"/>
        <path id="Path_1348" data-name="Path 1348" d="M922.7,186.9H894.51v-8.759h12.63V152.05q1.643.605,3.273,1.238v24.855h12.279Z" transform="translate(3302.369 3524.728)" fill="#0087e8" opacity="0.1"/>
        <path id="Path_1349" data-name="Path 1349" d="M959.731,307.023H821.33a.089.089,0,0,0,.041,0H795.65V211.215h7.274v70.817H836.16v-41.94h27.467V207h28.189v33.112H919.27v41.94h40.469Z" transform="translate(3307.999 3507.558)" fill="#0087e8" opacity="0.1"/>
        <path id="Path_1350" data-name="Path 1350" d="M795.65,356.76v95.107H959.738V356.76Zm208.606,207.053.234-75.286H959.738V454.838H795.65V620.211a376.333,376.333,0,0,0,40.359-.488h.234q9.626-.619,19.162-1.76h.144a352.358,352.358,0,0,0,98.476-26.305" transform="translate(3298.438 3460.764)" fill="#0087e8" opacity="0.1"/>
        <path id="Path_1351" data-name="Path 1351" d="M1126.538,499.37h38.275c-.33,19.313-4.208,38.282-12.7,55.8a134.721,134.721,0,0,1-28.464,38.4v-60.5h2.888Z" transform="translate(3195.951 3416.204)" fill="#0087e8" opacity="0.1"/>
        <path id="Path_1352" data-name="Path 1352" d="M1166.153,458.966h-38.3V379.48h20.729C1159.3,404.527,1166.119,432.029,1166.153,458.966Z" transform="translate(3194.639 3453.665)" fill="#0087e8" opacity="0.1"/>
        <rect id="Rectangle_203" data-name="Rectangle 203" width="23.177" height="30.039" transform="translate(4111.704 3745.401)" fill="#0087e8" opacity="0.1"/>
        <rect id="Rectangle_204" data-name="Rectangle 204" width="23.177" height="6.917" transform="translate(4111.704 3807.664)" fill="#0087e8" opacity="0.1"/>
        <rect id="Rectangle_205" data-name="Rectangle 205" width="23.177" height="20.179" transform="translate(4111.704 3817.517)" fill="#0087e8" opacity="0.1"/>
        <rect id="Rectangle_206" data-name="Rectangle 206" width="23.177" height="30.039" transform="translate(4111.704 3869.928)" fill="#0087e8" opacity="0.1"/>
        <rect id="Rectangle_207" data-name="Rectangle 207" width="23.177" height="30.039" transform="translate(4111.704 3932.192)" fill="#0087e8" opacity="0.1"/>
        <path id="Path_1353" data-name="Path 1353" d="M760.877,637.153a3.337,3.337,0,0,1,.688.048,3.879,3.879,0,0,1-.687-.041v6.979H737.7V614.1h23.177Z" transform="translate(3373.919 3380.355)" fill="#0087e8" opacity="0.1"/>
        <path id="Path_1354" data-name="Path 1354" d="M760.877,704.65v23.2q-11.633-.956-23.177-2.674V704.65Z" transform="translate(3374.004 3352.062)" fill="#0087e8" opacity="0.1"/>
        <rect id="Rectangle_208" data-name="Rectangle 208" width="99.329" height="2.207" transform="translate(3952.994 3910.424)" fill="#0087e8" opacity="0.1"/>
        <rect id="Rectangle_209" data-name="Rectangle 209" width="99.329" height="8.457" transform="translate(3952.994 3915.567)" fill="#0087e8" opacity="0.1"/>
        <rect id="Rectangle_210" data-name="Rectangle 210" width="99.329" height="13.6" transform="translate(3952.994 3951.745)" fill="#0087e8" opacity="0.1"/>
        <path id="Path_1355" data-name="Path 1355" d="M560.616,612.08v13.6H482.924q-5.074-3.864-10-7.934c-2.283-1.877-4.538-3.8-6.827-5.665Z" transform="translate(3491.045 3380.986)" fill="#0087e8" opacity="0.1"/>
        <path id="Path_1356" data-name="Path 1356" d="M587.519,672.17V685.8h-8.2q-13.84-6.243-27.117-13.606Z" transform="translate(3456.735 3362.211)" fill="#0087e8" opacity="0.1"/>
        <rect id="Rectangle_211" data-name="Rectangle 211" width="19.554" height="19.554" transform="translate(4176.17 3826.737)" fill="#0087e8" opacity="0.1"/>
        <rect id="Rectangle_212" data-name="Rectangle 212" width="19.554" height="19.554" transform="translate(3858.792 3735.631)" fill="#0087e8" opacity="0.1"/>
        <rect id="Rectangle_213" data-name="Rectangle 213" width="19.554" height="19.554" transform="translate(3858.792 3781.05)" fill="#0087e8" opacity="0.1"/>
        <rect id="Rectangle_214" data-name="Rectangle 214" width="19.554" height="19.554" transform="translate(3858.792 3826.469)" fill="#0087e8" opacity="0.1"/>
        <rect id="Rectangle_215" data-name="Rectangle 215" width="19.554" height="19.554" transform="translate(3858.792 3871.88)" fill="#0087e8" opacity="0.1"/>
        <rect id="Rectangle_216" data-name="Rectangle 216" width="19.554" height="19.554" transform="translate(3858.792 3917.299)" fill="#0087e8" opacity="0.1"/>
        <rect id="Rectangle_217" data-name="Rectangle 217" width="19.554" height="19.554" transform="translate(3858.792 3962.718)" fill="#0087e8" opacity="0.1"/>
        <rect id="Rectangle_218" data-name="Rectangle 218" width="19.554" height="19.554" transform="translate(4235.755 3826.737)" fill="#0087e8" opacity="0.1"/>
        <rect id="Rectangle_219" data-name="Rectangle 219" width="19.554" height="19.554" transform="translate(4176.17 3874.968)" fill="#0087e8" opacity="0.1"/>
        <rect id="Rectangle_220" data-name="Rectangle 220" width="19.554" height="19.554" transform="translate(4235.755 3874.968)" fill="#0087e8" opacity="0.1"/>
        <rect id="Rectangle_221" data-name="Rectangle 221" width="19.554" height="19.554" transform="translate(4176.17 3923.191)" fill="#0087e8" opacity="0.1"/>
        <rect id="Rectangle_222" data-name="Rectangle 222" width="19.554" height="19.554" transform="translate(4235.755 3923.191)" fill="#0087e8" opacity="0.1"/>
        <rect id="Rectangle_223" data-name="Rectangle 223" width="19.554" height="19.554" transform="translate(4176.17 3971.423)" fill="#0087e8" opacity="0.1"/>
        <rect id="Rectangle_224" data-name="Rectangle 224" width="19.554" height="19.554" transform="translate(4235.755 3971.423)" fill="#0087e8" opacity="0.1"/>
        <rect id="Rectangle_225" data-name="Rectangle 225" width="19.554" height="19.554" transform="translate(4176.17 4019.654)" fill="#0087e8" opacity="0.1"/>
        <rect id="Rectangle_226" data-name="Rectangle 226" width="19.554" height="19.554" transform="translate(4235.755 4019.654)" fill="#0087e8" opacity="0.1"/>
        <path id="Path_1357" data-name="Path 1357" d="M838.4,714.939V702.33h19.547v10.815Z" transform="translate(3337.771 3365.548)" fill="#0087e8" opacity="0.1"/>
        <path id="Path_1358" data-name="Path 1358" d="M96.53,316.91V328.1h66.911V316.91Zm6.662,10.485h-5.5v-9.777h5.5Zm6.662,0h-5.5v-9.777h5.5Zm6.649,0H111v-9.777h5.5Zm6.662,0h-5.5v-9.777h5.5Zm6.655,0h-5.5v-9.777h5.5Zm6.662,0h-5.5v-9.777h5.5Zm6.662,0h-5.5v-9.777h5.5Zm6.655,0h-5.5v-9.777h5.5Zm6.655,0h-5.5v-9.777h5.5Zm6.662,0h-5.5v-9.777h5.5Z" transform="translate(3664.604 3473.215)" fill="#0087e8" opacity="0.1"/>
        <path id="Path_1359" data-name="Path 1359" d="M96.53,364.27v11.186h66.911V364.27Zm6.662,10.485h-5.5v-9.777h5.5Zm6.662,0h-5.5v-9.777h5.5Zm6.649,0H111v-9.777h5.5Zm6.662,0h-5.5v-9.777h5.5Zm6.655,0h-5.5v-9.777h5.5Zm6.662,0h-5.5v-9.777h5.5Zm6.662,0h-5.5v-9.777h5.5Zm6.655,0h-5.5v-9.777h5.5Zm6.655,0h-5.5v-9.777h5.5Zm6.662,0h-5.5v-9.777h5.5Z" transform="translate(3664.604 3458.417)" fill="#0087e8" opacity="0.1"/>
        <path id="Path_1360" data-name="Path 1360" d="M96.53,411.64v11.179h66.911V411.64Zm6.662,10.471h-5.5v-9.777h5.5Zm6.662,0h-5.5v-9.777h5.5Zm6.649,0H111v-9.777h5.5Zm6.662,0h-5.5v-9.777h5.5Zm6.655,0h-5.5v-9.777h5.5Zm6.662,0h-5.5v-9.777h5.5Zm6.662,0h-5.5v-9.777h5.5Zm6.655,0h-5.5v-9.777h5.5Zm6.655,0h-5.5v-9.777h5.5Zm6.662,0h-5.5v-9.777h5.5Z" transform="translate(3664.604 3443.616)" fill="#0087e8" opacity="0.1"/>
        <path id="Path_1361" data-name="Path 1361" d="M96.53,459v11.179h66.911V459Zm6.662,10.478h-5.5v-9.791h5.5Zm6.662,0h-5.5v-9.791h5.5Zm6.649,0H111v-9.791h5.5Zm6.662,0h-5.5v-9.791h5.5Zm6.655,0h-5.5v-9.791h5.5Zm6.662,0h-5.5v-9.791h5.5Zm6.662,0h-5.5v-9.791h5.5Zm6.655,0h-5.5v-9.791h5.5Zm6.655,0h-5.5v-9.791h5.5Zm6.662,0h-5.5v-9.791h5.5Z" transform="translate(3664.604 3428.818)" fill="#0087e8" opacity="0.1"/>
        <path id="Path_1362" data-name="Path 1362" d="M97,506.34c.261,1.059.571,2.1.887,3.142v-2.434h5.5v9.77h-2.95c.083.234.172.474.268.688h62.91V506.34Zm13.063,10.478h-5.5v-9.77h5.5Zm6.648,0h-5.5v-9.77h5.5Zm6.662,0h-5.5v-9.77h5.5Zm6.655,0h-5.5v-9.77h5.5Zm6.662,0h-5.5v-9.77h5.5Zm6.662,0h-5.5v-9.77h5.5Zm6.655,0h-5.5v-9.77h5.5Zm6.655,0h-5.5v-9.77h5.5Zm6.662,0h-5.5v-9.77h5.5Z" transform="translate(3664.457 3414.026)" fill="#0087e8" opacity="0.1"/>
        <path id="Path_1363" data-name="Path 1363" d="M119.54,553.7c.179.22.344.467.516.688h3.637v4.7l1.176,1.375v-6.1h5.5v9.859h-2.262c.22.227.433.467.688.688h41.823V553.7Zm17.5,10.519h-5.5V554.4h5.5Zm6.662,0h-5.5V554.4h5.5Zm6.662,0h-5.5V554.4h5.5Zm6.655,0h-5.5V554.4h5.5Zm6.655,0h-5.5V554.4h5.5Zm6.662,0h-5.5V554.4h5.5Z" transform="translate(3657.415 3399.228)" fill="#0087e8" opacity="0.1"/>
        <path id="Path_1364" data-name="Path 1364" d="M172.93,601.06c.633.357,1.272.688,1.911,1.038v-.344h5.5v3.1c.4.172.777.357,1.169.536v-3.637h5.5v5.954a2.243,2.243,0,0,0,.323.117V601.06Z" transform="translate(3640.732 3384.429)" fill="#0087e8" opacity="0.1"/>
        <path id="Path_1365" data-name="Path 1365" d="M644.274,305.686ZM601.922,508.613ZM557.733,405.365c.131.44.247.88.364,1.313h0C557.995,406.245,557.871,405.805,557.733,405.365Zm86.541-99.68ZM229,202.734v2.929h30.712V202.72Zm372.928,305.88Zm-44.2-103.248c.131.44.247.88.364,1.313h0C557.995,406.245,557.871,405.805,557.733,405.365Zm86.541-99.68ZM601.922,508.613ZM557.733,405.365c.131.44.247.88.364,1.313h0C557.995,406.245,557.871,405.805,557.733,405.365Z" transform="translate(3623.212 3508.895)" fill="#0087e8" opacity="0.1"/>
      </g>
    </g>
  </g>
</svg>
