<svg xmlns="http://www.w3.org/2000/svg" width="14.689" height="15.137" viewBox="0 0 14.689 15.137">
  <g id="Group_484" data-name="Group 484" transform="translate(-4.108 0)">
    <path id="Path_1265" data-name="Path 1265" d="M585.379,138.476c-.657.345-1.083,2.844-1.6,2.263s-.482-1.337-1.179-1.552a2.1,2.1,0,0,0-1.681.338c-.092.055-.181.115-.267.175-.057-.044-.114-.085-.175-.123a1.8,1.8,0,0,0-1.5-.194,2.042,2.042,0,0,1,.986.837c-.172.132-.346.265-.524.383-1.487.988-3.6-1.16-5.167-1.966.98,2.117.5,2.994-.353,5.184l-.029.125c.048-.549-1.427-.958-1.341-.185a10.253,10.253,0,0,0,.7,2.252,11.327,11.327,0,0,1-2.532-7.633,4.569,4.569,0,0,1,.3-1.7,1.1,1.1,0,0,1,1.284-.662,5.116,5.116,0,0,1,2.034-4.434,3.772,3.772,0,0,1,4.356-.037,16.741,16.741,0,0,1,1.69,1.508,3.33,3.33,0,0,0,1.926.989c.453.025.946-.1,1.335.168a2.146,2.146,0,0,1,.6,1.6,1.9,1.9,0,0,0-1.095.524,1.776,1.776,0,0,1,1.2.3l.02.013C584.6,137.69,584.574,137.921,585.379,138.476Z" transform="translate(-566.582 -130.875)" fill="#2f2e41"/>
  </g>
</svg>
