<svg xmlns="http://www.w3.org/2000/svg" width="365.658" height="296.658" viewBox="0 0 365.658 296.658">
  <g id="Group_188" data-name="Group 188" transform="translate(-0.007 -131.559)">
    <path id="Path_1109" data-name="Path 1109" d="M394.55,701.365a1.97,1.97,0,0,1-1.428-3.414l.135-.537a5.292,5.292,0,0,0-9.812-.093c-2.335,5.465-5.356,11.122-3.854,17.141-9.926-21.036-6.55-47.2,8.119-65.193a16.146,16.146,0,0,0,8.2-10.81c-2.007.68-4.509-.952-3-3.066.654-.808,1.314-1.609,1.968-2.417-7.623-8.118-16.7,4.641-8.315,15.6a63.157,63.157,0,0,0-7.094,11.1,26.556,26.556,0,0,0-1.585-12.334c-1.517-3.661-4.362-6.744-6.867-9.909a5.451,5.451,0,0,0-9.723,2.816c2.811.924,3.176,4.984-.039,5.539a27.187,27.187,0,0,0,14.981,21.462,63.4,63.4,0,0,0-3.465,26.5c-1.446-10.495-12.711-13.042-20.585-17.213a3.067,3.067,0,0,0-4.678,3.107,17.719,17.719,0,0,1,3.105,1.638,2.678,2.678,0,0,1-1.244,4.888c3.969,9.823,14.231,16.419,24.77,16.382a65.183,65.183,0,0,0,4.379,12.783h15.642c.056-.174.107-.353.157-.527a17.769,17.769,0,0,1-4.328-.258c3.831-4.535,6.793-6.849,4.564-13.181Z" transform="translate(-302.307 -288.026)" fill="#f2f2f2"/>
    <path id="Path_1110" data-name="Path 1110" d="M688.494,701.365a1.97,1.97,0,0,0,1.428-3.414l-.135-.537a5.292,5.292,0,0,1,9.812-.093c2.335,5.465,5.356,11.122,3.854,17.141,9.926-21.036,6.55-47.2-8.119-65.193a16.146,16.146,0,0,1-8.2-10.81c2.007.68,4.509-.952,3-3.066-.654-.808-1.314-1.609-1.968-2.417,7.623-8.118,16.7,4.641,8.315,15.6a63.163,63.163,0,0,1,7.094,11.1,26.556,26.556,0,0,1,1.585-12.334c1.518-3.661,4.362-6.744,6.867-9.909a5.451,5.451,0,0,1,9.723,2.816c-2.811.924-3.176,4.984.039,5.539a27.187,27.187,0,0,1-14.981,21.462,63.406,63.406,0,0,1,3.465,26.5c1.446-10.495,12.711-13.042,20.585-17.213a3.067,3.067,0,0,1,4.678,3.107,17.717,17.717,0,0,0-3.105,1.638,2.678,2.678,0,0,0,1.244,4.888c-3.969,9.823-14.231,16.419-24.77,16.382a65.188,65.188,0,0,1-4.379,12.783H688.886c-.056-.174-.107-.353-.157-.527a17.771,17.771,0,0,0,4.328-.258c-3.831-4.535-6.793-6.849-4.564-13.181Z" transform="translate(-456.797 -288.026)" fill="#f2f2f2"/>
    <path id="Path_1111" data-name="Path 1111" d="M422.395,630.994l-6.736,1.532-9.118-25.254,9.943-2.262Z" transform="translate(-184.898 -215.333)" fill="#ffb6b6"/>
    <path id="Path_1112" data-name="Path 1112" d="M686.128,769.953l-20.716,4.713-.06-.262a8.27,8.27,0,0,1,6.228-9.9h0l3.131-3.732,7.713,1.265,1.808-.412Z" transform="translate(-446.795 -347.319)" fill="#2f2e41"/>
    <path id="Path_1113" data-name="Path 1113" d="M616.18,426.88l3.7,5.832-20.732,17.061-5.466-8.608Z" transform="translate(-270.014 -134.317)" fill="#ffb6b6"/>
    <path id="Path_1114" data-name="Path 1114" d="M904.5,531.565,915.887,549.5l-.227.144a8.269,8.269,0,0,1-11.413-2.547h0l-4.566-1.7-1.4-7.691-.994-1.565Z" transform="translate(-552.378 -243.071)" fill="#2f2e41"/>
    <path id="Path_1115" data-name="Path 1115" d="M504.331,394.3l-1.664-9.644,25.295-11.422,5.463-9.672a4.7,4.7,0,1,1,6.945,3.121l-8.986,13.893Z" transform="translate(-372.897 -164.085)" fill="#a0616a"/>
    <path id="Path_1116" data-name="Path 1116" d="M226.971,293.2l11.391-5.819,3.015,11.322-7.912,5.865Z" transform="translate(-103.227 -70.869)" fill="#0089ea"/>
    <path id="Path_1117" data-name="Path 1117" d="M180.085,628.9h6.887l3.277-26.566H180.083Z" transform="translate(-81.901 -214.115)" fill="#a0616a"/>
    <path id="Path_1118" data-name="Path 1118" d="M451.338,760.453v-4.669l-1.811.111-7.371.437-1.706.1-1.3,15.638-.07.838h4.891l.157-.833.71-3.784,1.834,3.784.4.833h12.966A2.929,2.929,0,0,0,462.947,770C463.495,767.439,452.712,761.914,451.338,760.453Z" transform="translate(-343.975 -345.049)" fill="#2f2e41"/>
    <path id="Path_1119" data-name="Path 1119" d="M28.784,457.676l-1.606,6.7,25.07,9.38,2.369-9.885Z" transform="translate(-12.358 -148.323)" fill="#a0616a"/>
    <path id="Path_1120" data-name="Path 1120" d="M278.871,573.564l4.541,1.089.315-1.787,1.294-7.269.3-1.683L270.413,559l-.8-.263-1.14,4.756.773.347,3.514,1.573-4.108.9-.9.2-3.023,12.608a2.93,2.93,0,0,0,2.158,3.511C269.243,583.756,277.13,574.559,278.871,573.564Z" transform="translate(-264.644 -255.428)" fill="#2f2e41"/>
    <path id="Path_1121" data-name="Path 1121" d="M427.43,444.382l-8.865-4.144-17.679,21.4-10.768,2.723a4.7,4.7,0,1,0,1.183,7.522l15.769-5.011Z" transform="translate(-318.598 -201.534)" fill="#a0616a"/>
    <path id="Path_1122" data-name="Path 1122" d="M686.876,286.711a9.5,9.5,0,1,1,9.5-9.5A9.5,9.5,0,0,1,686.876,286.711Zm0-17.912a8.411,8.411,0,1,0,8.411,8.411,8.411,8.411,0,0,0-8.411-8.411Z" transform="translate(-452.357 -123.065)" fill="#e6e6e6"/>
    <path id="Path_1123" data-name="Path 1123" d="M691.345,285.555l-.057,0a1.171,1.171,0,0,1-.868-.451l-1.5-1.924a1.172,1.172,0,0,1,.205-1.644l.054-.042a1.172,1.172,0,0,1,1.645.206.855.855,0,0,0,1.294.063l3.039-3.208a1.174,1.174,0,0,1,1.657-.045l.05.047a1.172,1.172,0,0,1,.045,1.657l-4.716,4.978a1.17,1.17,0,0,1-.85.366Z" transform="translate(-457.497 -127.83)" fill="#e6e6e6"/>
    <path id="Path_1124" data-name="Path 1124" d="M599.876,497.711a9.5,9.5,0,1,1,9.5-9.5,9.5,9.5,0,0,1-9.5,9.5Zm0-17.912a8.411,8.411,0,1,0,8.411,8.411,8.411,8.411,0,0,0-8.411-8.411Z" transform="translate(-412.788 -219.031)" fill="#e6e6e6"/>
    <path id="Path_1125" data-name="Path 1125" d="M604.345,496.555l-.057,0a1.171,1.171,0,0,1-.868-.451l-1.5-1.924a1.172,1.172,0,0,1,.205-1.645l.054-.042a1.172,1.172,0,0,1,1.645.206.855.855,0,0,0,1.294.063l3.039-3.208a1.174,1.174,0,0,1,1.657-.045l.05.047a1.171,1.171,0,0,1,.045,1.657l-4.716,4.978A1.171,1.171,0,0,1,604.345,496.555Z" transform="translate(-417.928 -223.797)" fill="#e6e6e6"/>
    <path id="Path_1126" data-name="Path 1126" d="M408.876,262.711a9.5,9.5,0,1,1,9.5-9.5,9.5,9.5,0,0,1-9.5,9.5Zm0-17.912a8.411,8.411,0,1,0,8.411,8.411,8.411,8.411,0,0,0-8.411-8.411Z" transform="translate(-325.918 -112.149)" fill="#e6e6e6"/>
    <path id="Path_1127" data-name="Path 1127" d="M413.345,261.555l-.057,0a1.171,1.171,0,0,1-.868-.451l-1.5-1.924a1.172,1.172,0,0,1,.205-1.645l.054-.042a1.171,1.171,0,0,1,1.645.206.855.855,0,0,0,1.294.063l3.039-3.208a1.173,1.173,0,0,1,1.657-.045l.05.048a1.172,1.172,0,0,1,.045,1.657l-4.716,4.978a1.17,1.17,0,0,1-.85.366Z" transform="translate(-331.058 -116.915)" fill="#e6e6e6"/>
    <path id="Path_1128" data-name="Path 1128" d="M433.082,528.568c-22.032,0-47.353-24.449-69.756-12.833-67.829,35.172-58.492-23.683-77.979-45.571l.64-1.283c21.5,19.279,48.347,34.966,77.634,45.362,26.466,9.4,53.131,13.75,77.1,12.6l.042,1.542Q436.967,528.569,433.082,528.568Z" transform="translate(-274.057 -214.561)" fill="#f2f2f2"/>
    <ellipse id="Ellipse_31" data-name="Ellipse 31" cx="4.605" cy="6.176" rx="4.605" ry="6.176" transform="translate(124.197 136.351)" fill="#e6e6e6"/>
    <path id="Path_1129" data-name="Path 1129" d="M595.954,448.848c-2.106,1.4-4.26-1.936-2.115-3.277C595.945,444.168,598.1,447.507,595.954,448.848Z" transform="translate(-413.96 -203.806)" fill="#e6e6e6"/>
    <circle id="Ellipse_33" data-name="Ellipse 33" cx="5.835" cy="5.835" r="5.835" transform="translate(150.571 269.251)" fill="#f2f2f2"/>
    <path id="Path_1131" data-name="Path 1131" d="M395.9,511.053s-14.546,9.472-10.7,15.765c.133.217-17.375,23.34-17.375,23.34l-33.05-2.1-1.164,11.062,29.424,8.522s7.2,5.288,12.759-.538,24.083-23.669,24.083-23.669l.893,36.024-9.3,49.918,13.883-.88,13.513-50.081,4.988-56.729Z" transform="translate(-296.01 -233.742)" fill="#2f2e41"/>
    <path id="Path_1132" data-name="Path 1132" d="M448.927,404.773l-6.117,4.635-6.972,14.88,6.7,9.105s5.639,9.773-3.387,19.238-15.958,19.574-8.733,19.213,36.486,14.522,36.679,2.329.582-21.542.582-21.542l7.672-19.458s4.571-11.608,1.362-15.083-7.506-7.915-7.506-7.915l-7.814-7.814h-7.056Z" transform="translate(-338.671 -184.308)" fill="#0089ea"/>
    <path id="Path_1133" data-name="Path 1133" d="M473.012,353.047c13.723,7.809,2.457,28.412-11.521,21.075C447.769,366.313,459.034,345.71,473.012,353.047Z" transform="translate(-351.337 -161.172)" fill="#a0616a"/>
    <path id="Path_1134" data-name="Path 1134" d="M475.686,352.517c-.962,1.251-2.97.664-6.9,1.557a16.4,16.4,0,0,0-.459-3.959,11.144,11.144,0,0,1-1.879,4.456c-3.416.379.772,10.756-.977,18.386-2.254-16.1-6.993-11.879-4.6-8.687,1.533,2.044.511,8.176-4.088,5.11-7.588,3.606-18.4-14.307-6.417-22.709-.214-4.541,4.839-5.259,7.95-3.862C465.864,337.184,474.491,344.391,475.686,352.517Z" transform="translate(-346.675 -156.312)" fill="#2f2e41"/>
    <path id="Path_1135" data-name="Path 1135" d="M412.724,339.331c-3.055,18.784-19.43-3.455-27.13,15.031-2.421,6.694,1.733,11.483,4.36,17.04.6,4.566-5.341,6.883-5.963,11.087-.173,9.637,15.374,9.047,19.72,2.967,4.466-6.365-.867-14.9,1.817-21.736,3.773-9.485,19.116-9.555,20.453-20.59C423.392,339.443,416.431,335.221,412.724,339.331Z" transform="translate(-318.921 -154.871)" fill="#2f2e41"/>
    <path id="Path_1136" data-name="Path 1136" d="M456.4,339.175c-.1.042-.2.084-.289.132h-.005c-.084.042-.168.084-.253.131-.011.005-.016.011-.026.016-.111-.105-.221-.21-.337-.316a1.217,1.217,0,0,0,.021.516l.016.063c.105.11.216.216.331.326.105-.079.205-.163.31-.242.063-.053.126-.105.195-.158.01-.137.026-.295.042-.468Zm3.167-5.849c-2.346-.537-3.1,2.53-3.33,4.008-.852-5.366-4.4-3.677-3.172-.016a8.2,8.2,0,0,0,1.8,2.9c.11.126.231.253.358.379-.142.736.573.547,1.541-.132a12.9,12.9,0,0,0,1.973-1.731c1.931-2.025,3.435-4.734.825-5.413Zm.074,3.019a18.379,18.379,0,0,1-2.425,2.572q-.418.379-.852.726c-.005.047-.005.089-.011.126a.97.97,0,0,1-.074.147c-.295.531-.626.242-.752-.2-.011-.016-.026-.032-.037-.047a7.415,7.415,0,0,1-1.089-1.441c-2.172-3.766,1.326-6.328,1.152.7a.666.666,0,0,0-.063.205,1.217,1.217,0,0,0,.021.516l.016.063c.105.11.216.216.331.326.105-.079.205-.163.31-.242.063-.053.126-.105.195-.158.01-.137.026-.295.042-.468v-.005c.137-1.41.51-3.945,1.2-4.634,1.515-1.162,3.477.1,2.035,1.81Zm-3.24,2.83c-.1.042-.2.084-.289.132h-.005c-.084.042-.168.084-.252.131-.011.005-.016.011-.026.016-.11-.105-.221-.21-.337-.316a1.217,1.217,0,0,0,.021.516l.016.063c.105.11.216.216.331.326.105-.079.205-.163.31-.242.063-.053.126-.105.195-.158.01-.137.026-.295.042-.468Z" transform="translate(-350.222 -152.88)" fill="#2f2e41"/>
    <path id="Path_1137" data-name="Path 1137" d="M667.978,526.77l-5.068,13.217-23.775,46.9,20.891,54.555,10.782-2.846-8.886-51.709,25.495-30.977,30.277,20.535s13.428,10.483,18.536.545,38.163-31.075,38.163-31.075l-8.178-8.723L728.151,555l-26.272-36.979Z" transform="translate(-434.965 -236.912)" fill="#2f2e41"/>
    <path id="Path_1138" data-name="Path 1138" d="M705.419,410.593l-8.343-8.963-14.311-1.969L665.23,411.936l.177,13.588,8.668,32.018s-3.3,23,5.921,22.773,14.249-4.829,18.005-3.893,19.723,4.919,20.735.747,6.391-1.185,6.155-5.132-14.561-32.4-14.561-32.4l3.562-28.454Z" transform="translate(-446.834 -183.079)" fill="#0089ea"/>
    <path id="Path_1139" data-name="Path 1139" d="M810.968,340.147a5.11,5.11,0,0,1-5.475,5.606L786.308,382.24l-5.151-7.907,19.61-34.436a5.138,5.138,0,0,1,10.2.25Z" transform="translate(-499.559 -153.893)" fill="#ffb6b6"/>
    <path id="Path_1140" data-name="Path 1140" d="M725.035,400.229s-.761,6.49,6.546,8.1,27.55-9.96,30.868-11.727c1.039-.553,2.449-3.265,3.9-6.729.649-1.555,1.306-3.262,1.941-4.993.367-1,2.124-1.275,2.47-2.269s-.723-2.7-.412-3.628c1.478-4.42,2.525-7.927,2.525-7.927l-4.843-9.1c-6.773,3.581-10.247,11.468-12.8,20.554Z" transform="translate(-474.024 -165.93)" fill="#0089ea"/>
    <path id="Path_1141" data-name="Path 1141" d="M568.479,354.434a5.11,5.11,0,0,0,6.7,4.057l27.706,30.525,3.008-8.945-27.6-28.433a5.138,5.138,0,0,0-9.814,2.795Z" transform="translate(-402.8 -159.801)" fill="#ffb6b6"/>
    <path id="Path_1142" data-name="Path 1142" d="M653.12,395.061s2.361,6.093-4.311,9.477-29.165-2.749-32.821-3.629c-1.145-.276-3.188-2.548-5.456-5.54-1.018-1.343-2.081-2.831-3.128-4.349-.606-.878-2.376-.7-2.959-1.578s.026-2.792-.509-3.615c-2.537-3.91-4.429-7.043-4.429-7.043l2.412-10.019c7.453,1.772,12.79,8.538,17.538,16.7Z" transform="translate(-416.942 -169.027)" fill="#0089ea"/>
    <circle id="Ellipse_34" data-name="Ellipse 34" cx="13.617" cy="13.617" r="13.617" transform="translate(229.756 187.069)" fill="#ffb6b6"/>
    <path id="Path_1143" data-name="Path 1143" d="M714.456,346.91a7.021,7.021,0,0,0-6.726-3.278,9.185,9.185,0,0,0-15.39-5.357,2.856,2.856,0,0,0-2.793-.28,5.89,5.89,0,0,0-2.269,1.821,13.217,13.217,0,0,0-1.849,13.446c-.318-1.158.842-2.247,2.014-2.507s2.4-.014,3.59-.183c1.524-.217,2.893-1.1,4.419-1.3a10.061,10.061,0,0,1,3.823.491,10.365,10.365,0,0,0,3.821.513c1.284-.152,2.939,4.715,2.917,8.143,0,.65.13,1.484.764,1.622.782.17,1.235-.909,1.979-1.2a1.377,1.377,0,0,1,1.689.9,2.245,2.245,0,0,1-.429,2.01,6.632,6.632,0,0,1-1.608,1.395l.307.255a1.824,1.824,0,0,0,2.3.286,4.969,4.969,0,0,0,1.653-1.882,22.15,22.15,0,0,0,3.032-7.265A10.581,10.581,0,0,0,714.456,346.91Z" transform="translate(-455.54 -154.021)" fill="#2f2e41"/>
    <path id="Path_1144" data-name="Path 1144" d="M796.44,449.713c-17.564,13.3-52.51,9.1-63.355,31.886-32.835,68.99-60.927,16.436-89.676,10.753l-.265-1.409c28.78,2.387,59.651-1.317,89.274-10.711,26.771-8.489,50.656-21.118,69.07-36.507l.964,1.2Q799.537,447.368,796.44,449.713Z" transform="translate(-436.789 -203.12)" fill="#f2f2f2"/>
    <path id="Path_1145" data-name="Path 1145" d="M588.151,785.371c-.418,1.239-239.249,1.239-239.7,0C348.869,784.132,587.7,784.132,588.151,785.371Z" transform="translate(-302.757 -358.083)" fill="#ccc"/>
  </g>
</svg>
