<svg xmlns="http://www.w3.org/2000/svg" width="22.397" height="25.597" viewBox="0 0 22.397 25.597">
  <g id="Group_499" data-name="Group 499" transform="translate(-292 -267)">
    <path id="Icon_metro-files-empty" data-name="Icon metro-files-empty" d="M25.841,10.854a22.661,22.661,0,0,0-2.179-2.492A22.671,22.671,0,0,0,21.17,6.182,3.987,3.987,0,0,0,18.9,5.128H9.7a2,2,0,0,0-2,2v18.4a2,2,0,0,0,2,2H24.9a2,2,0,0,0,2-2v-12.4a3.987,3.987,0,0,0-1.055-2.273Zm-3.31-1.361a21.819,21.819,0,0,1,1.814,2.034H20.5V7.679a21.8,21.8,0,0,1,2.034,1.814ZM25.3,25.525a.405.405,0,0,1-.4.4H9.7a.405.405,0,0,1-.4-.4V7.127a.405.405,0,0,1,.4-.4h9.2v5.6a.8.8,0,0,0,.8.8h5.6ZM17.97,2.983A3.987,3.987,0,0,0,15.7,1.928H6.5a2,2,0,0,0-2,2v18.4a2,2,0,0,0,1.6,1.96V3.928a.405.405,0,0,1,.4-.4h12.17c-.241-.2-.476-.381-.7-.545Z" transform="translate(287.501 265.072)" fill="#0087e8"/>
  </g>
</svg>
