<svg xmlns="http://www.w3.org/2000/svg" width="46.183" height="22.914" viewBox="0 0 46.183 22.914">
  <g id="Group_358" data-name="Group 358" transform="matrix(0.588, 0.809, -0.809, 0.588, -1570.3, -2425.921)">
    <g id="Rectangle_119" data-name="Rectangle 119" transform="translate(2911.627 119.712) rotate(30)" fill="#fff" stroke="#d5d5d5" stroke-width="1">
      <rect width="18.363" height="44.507" rx="5" stroke="none"/>
      <rect x="0.5" y="0.5" width="17.363" height="43.507" rx="4.5" fill="none"/>
    </g>
    <g id="Group_264" data-name="Group 264" transform="translate(2912.125 122.918) rotate(30)">
      <g id="Ellipse_45" data-name="Ellipse 45" transform="translate(0 8.58)" fill="#e9e7e7" stroke="#d5d5d5" stroke-width="1">
        <ellipse cx="2.86" cy="3.146" rx="2.86" ry="3.146" stroke="none"/>
        <ellipse cx="2.86" cy="3.146" rx="2.36" ry="2.646" fill="none"/>
      </g>
      <g id="Ellipse_48" data-name="Ellipse 48" fill="#e9e7e7" stroke="#d5d5d5" stroke-width="1">
        <ellipse cx="2.86" cy="3.146" rx="2.86" ry="3.146" stroke="none"/>
        <ellipse cx="2.86" cy="3.146" rx="2.36" ry="2.646" fill="none"/>
      </g>
      <g id="Ellipse_46" data-name="Ellipse 46" transform="translate(8.008 8.58)" fill="#e9e7e7" stroke="#d5d5d5" stroke-width="1">
        <ellipse cx="2.86" cy="3.146" rx="2.86" ry="3.146" stroke="none"/>
        <ellipse cx="2.86" cy="3.146" rx="2.36" ry="2.646" fill="none"/>
      </g>
      <g id="Ellipse_47" data-name="Ellipse 47" transform="translate(8.008 0)" fill="#e9e7e7" stroke="#d5d5d5" stroke-width="1">
        <ellipse cx="2.86" cy="3.146" rx="2.86" ry="3.146" stroke="none"/>
        <ellipse cx="2.86" cy="3.146" rx="2.36" ry="2.646" fill="none"/>
      </g>
    </g>
    <g id="Group_266" data-name="Group 266" transform="translate(2903.301 137.142) rotate(30)">
      <g id="Ellipse_45-2" data-name="Ellipse 45" transform="translate(0.51 7.945)" fill="#e9e7e7" stroke="#d5d5d5" stroke-width="1">
        <ellipse cx="2.86" cy="3.146" rx="2.86" ry="3.146" stroke="none"/>
        <ellipse cx="2.86" cy="3.146" rx="2.36" ry="2.646" fill="none"/>
      </g>
      <g id="Ellipse_50" data-name="Ellipse 50" transform="translate(0 15.858)" fill="#e9e7e7" stroke="#d5d5d5" stroke-width="1">
        <ellipse cx="2.86" cy="3.146" rx="2.86" ry="3.146" stroke="none"/>
        <ellipse cx="2.86" cy="3.146" rx="2.36" ry="2.646" fill="none"/>
      </g>
      <g id="Ellipse_48-2" data-name="Ellipse 48" transform="translate(0.877 0)" fill="#e9e7e7" stroke="#d5d5d5" stroke-width="1">
        <ellipse cx="2.86" cy="3.146" rx="2.86" ry="3.146" stroke="none"/>
        <ellipse cx="2.86" cy="3.146" rx="2.36" ry="2.646" fill="none"/>
      </g>
      <g id="Ellipse_46-2" data-name="Ellipse 46" transform="translate(8.518 7.945)" fill="#e9e7e7" stroke="#d5d5d5" stroke-width="1">
        <ellipse cx="2.86" cy="3.146" rx="2.86" ry="3.146" stroke="none"/>
        <ellipse cx="2.86" cy="3.146" rx="2.36" ry="2.646" fill="none"/>
      </g>
      <g id="Ellipse_49" data-name="Ellipse 49" transform="translate(8.008 15.858)" fill="#e9e7e7" stroke="#d5d5d5" stroke-width="1">
        <ellipse cx="2.86" cy="3.146" rx="2.86" ry="3.146" stroke="none"/>
        <ellipse cx="2.86" cy="3.146" rx="2.36" ry="2.646" fill="none"/>
      </g>
      <g id="Ellipse_47-2" data-name="Ellipse 47" transform="translate(8.885 0)" fill="#e9e7e7" stroke="#d5d5d5" stroke-width="1">
        <ellipse cx="2.86" cy="3.146" rx="2.86" ry="3.146" stroke="none"/>
        <ellipse cx="2.86" cy="3.146" rx="2.36" ry="2.646" fill="none"/>
      </g>
    </g>
  </g>
</svg>
