<svg xmlns="http://www.w3.org/2000/svg" width="40.5" height="30.368" viewBox="0 0 40.5 30.368">
  <g id="Group_25" data-name="Group 25" transform="translate(-23.338)">
    <rect id="Rectangle_59" data-name="Rectangle 59" width="8.567" height="5.568" transform="translate(23.338 9.038)" fill="#0087e8"/>
    <rect id="Rectangle_60" data-name="Rectangle 60" width="8.567" height="5.568" transform="translate(33.982 9.038)" fill="#0087e8"/>
    <rect id="Rectangle_61" data-name="Rectangle 61" width="8.567" height="5.568" transform="translate(44.627 9.038)" fill="#0087e8"/>
    <rect id="Rectangle_62" data-name="Rectangle 62" width="8.567" height="5.568" transform="translate(55.272 9.038)" fill="#0087e8"/>
    <rect id="Rectangle_63" data-name="Rectangle 63" width="8.567" height="5.568" transform="translate(23.338 16.919)" fill="#0087e8"/>
    <rect id="Rectangle_64" data-name="Rectangle 64" width="8.567" height="5.568" transform="translate(33.982 16.919)" fill="#0087e8"/>
    <rect id="Rectangle_65" data-name="Rectangle 65" width="8.567" height="5.568" transform="translate(44.627 16.919)" fill="#0087e8"/>
    <rect id="Rectangle_66" data-name="Rectangle 66" width="8.567" height="5.568" transform="translate(55.272 16.919)" fill="#0087e8"/>
    <rect id="Rectangle_67" data-name="Rectangle 67" width="8.567" height="5.568" transform="translate(23.338 24.8)" fill="#0087e8"/>
    <rect id="Rectangle_68" data-name="Rectangle 68" width="8.567" height="5.568" transform="translate(33.982 24.8)" fill="#0087e8"/>
    <rect id="Rectangle_69" data-name="Rectangle 69" width="8.567" height="5.568" transform="translate(44.627 24.8)" fill="#0087e8"/>
    <rect id="Rectangle_70" data-name="Rectangle 70" width="8.567" height="5.568" transform="translate(55.272 24.8)" fill="#0087e8"/>
    <circle id="Ellipse_28" data-name="Ellipse 28" cx="1.285" cy="1.285" r="1.285" transform="translate(31.167 4.283)" fill="#0087e8"/>
    <circle id="Ellipse_29" data-name="Ellipse 29" cx="1.285" cy="1.285" r="1.285" transform="translate(52.412 4.283)" fill="#0087e8"/>
    <rect id="Rectangle_71" data-name="Rectangle 71" width="1.028" height="5.911" transform="translate(31.938)" fill="#0087e8"/>
    <rect id="Rectangle_72" data-name="Rectangle 72" width="1.028" height="5.911" transform="translate(53.183)" fill="#0087e8"/>
  </g>
</svg>
