<svg xmlns="http://www.w3.org/2000/svg" width="35.664" height="44.608" viewBox="0 0 35.664 44.608">
  <g id="Group_359" data-name="Group 359" transform="translate(-2889.374 -119.712)">
    <g id="Rectangle_119" data-name="Rectangle 119" transform="translate(2910.174 119.712) rotate(30)" fill="#fff" stroke="#dcdcdc" stroke-width="1">
      <rect width="17.163" height="41.6" rx="5" stroke="none"/>
      <rect x="0.5" y="0.5" width="16.163" height="40.6" rx="4.5" fill="none"/>
    </g>
    <g id="Group_264" data-name="Group 264" transform="translate(2910.639 122.708) rotate(30)">
      <g id="Ellipse_45" data-name="Ellipse 45" transform="translate(0 8.019)" fill="#e9e7e7" stroke="#dcdcdc" stroke-width="1">
        <ellipse cx="2.673" cy="2.94" rx="2.673" ry="2.94" stroke="none"/>
        <ellipse cx="2.673" cy="2.94" rx="2.173" ry="2.44" fill="none"/>
      </g>
      <g id="Ellipse_48" data-name="Ellipse 48" fill="#e9e7e7" stroke="#dcdcdc" stroke-width="1">
        <ellipse cx="2.673" cy="2.94" rx="2.673" ry="2.94" stroke="none"/>
        <ellipse cx="2.673" cy="2.94" rx="2.173" ry="2.44" fill="none"/>
      </g>
      <g id="Ellipse_46" data-name="Ellipse 46" transform="translate(7.485 8.019)" fill="#e9e7e7" stroke="#dcdcdc" stroke-width="1">
        <ellipse cx="2.673" cy="2.94" rx="2.673" ry="2.94" stroke="none"/>
        <ellipse cx="2.673" cy="2.94" rx="2.173" ry="2.44" fill="none"/>
      </g>
      <g id="Ellipse_47" data-name="Ellipse 47" transform="translate(7.485 0)" fill="#e9e7e7" stroke="#dcdcdc" stroke-width="1">
        <ellipse cx="2.673" cy="2.94" rx="2.673" ry="2.94" stroke="none"/>
        <ellipse cx="2.673" cy="2.94" rx="2.173" ry="2.44" fill="none"/>
      </g>
    </g>
    <g id="Group_266" data-name="Group 266" transform="translate(2902.391 136.003) rotate(30)">
      <g id="Ellipse_45-2" data-name="Ellipse 45" transform="translate(0.477 7.426)" fill="#e9e7e7" stroke="#dcdcdc" stroke-width="1">
        <ellipse cx="2.673" cy="2.94" rx="2.673" ry="2.94" stroke="none"/>
        <ellipse cx="2.673" cy="2.94" rx="2.173" ry="2.44" fill="none"/>
      </g>
      <g id="Ellipse_50" data-name="Ellipse 50" transform="translate(0 14.822)" fill="#e9e7e7" stroke="#dcdcdc" stroke-width="1">
        <ellipse cx="2.673" cy="2.94" rx="2.673" ry="2.94" stroke="none"/>
        <ellipse cx="2.673" cy="2.94" rx="2.173" ry="2.44" fill="none"/>
      </g>
      <g id="Ellipse_48-2" data-name="Ellipse 48" transform="translate(0.82 0)" fill="#e9e7e7" stroke="#dcdcdc" stroke-width="1">
        <ellipse cx="2.673" cy="2.94" rx="2.673" ry="2.94" stroke="none"/>
        <ellipse cx="2.673" cy="2.94" rx="2.173" ry="2.44" fill="none"/>
      </g>
      <g id="Ellipse_46-2" data-name="Ellipse 46" transform="translate(7.962 7.426)" fill="#e9e7e7" stroke="#dcdcdc" stroke-width="1">
        <ellipse cx="2.673" cy="2.94" rx="2.673" ry="2.94" stroke="none"/>
        <ellipse cx="2.673" cy="2.94" rx="2.173" ry="2.44" fill="none"/>
      </g>
      <g id="Ellipse_49" data-name="Ellipse 49" transform="translate(7.485 14.822)" fill="#e9e7e7" stroke="#dcdcdc" stroke-width="1">
        <ellipse cx="2.673" cy="2.94" rx="2.673" ry="2.94" stroke="none"/>
        <ellipse cx="2.673" cy="2.94" rx="2.173" ry="2.44" fill="none"/>
      </g>
      <g id="Ellipse_47-2" data-name="Ellipse 47" transform="translate(8.304 0)" fill="#e9e7e7" stroke="#dcdcdc" stroke-width="1">
        <ellipse cx="2.673" cy="2.94" rx="2.673" ry="2.94" stroke="none"/>
        <ellipse cx="2.673" cy="2.94" rx="2.173" ry="2.44" fill="none"/>
      </g>
    </g>
  </g>
</svg>
