<svg xmlns="http://www.w3.org/2000/svg" xmlns:xlink="http://www.w3.org/1999/xlink" width="83" height="82" viewBox="0 0 83 82">
  <defs>
    <filter id="Rectangle_50" x="0" y="0" width="83" height="82" filterUnits="userSpaceOnUse">
      <feOffset dy="3" input="SourceAlpha"/>
      <feGaussianBlur stdDeviation="3" result="blur"/>
      <feFlood flood-color="#dfcdcd" flood-opacity="0.678"/>
      <feComposite operator="in" in2="blur"/>
      <feComposite in="SourceGraphic"/>
    </filter>
  </defs>
  <g id="Group_496" data-name="Group 496" transform="translate(-260 -249)">
    <g id="Group_494" data-name="Group 494" transform="translate(268.592 255.042)">
      <g transform="matrix(1, 0, 0, 1, -8.59, -6.04)" filter="url(#Rectangle_50)">
        <rect id="Rectangle_50-2" data-name="Rectangle 50" width="65" height="64" rx="32" transform="translate(9 6)" fill="#fff" opacity="0.43"/>
      </g>
      <text id="Patient_View" data-name="Patient View" transform="translate(19.408 46.958)" fill="#0089ea" font-size="5" font-family="poppins"><tspan x="0" y="0">Patient View</tspan></text>
    </g>
    <path id="Icon_metro-files-empty" data-name="Icon metro-files-empty" d="M25.841,10.854a22.661,22.661,0,0,0-2.179-2.492A22.671,22.671,0,0,0,21.17,6.182,3.987,3.987,0,0,0,18.9,5.128H9.7a2,2,0,0,0-2,2v18.4a2,2,0,0,0,2,2H24.9a2,2,0,0,0,2-2v-12.4a3.987,3.987,0,0,0-1.055-2.273Zm-3.31-1.361a21.819,21.819,0,0,1,1.814,2.034H20.5V7.679a21.8,21.8,0,0,1,2.034,1.814ZM25.3,25.525a.405.405,0,0,1-.4.4H9.7a.405.405,0,0,1-.4-.4V7.127a.405.405,0,0,1,.4-.4h9.2v5.6a.8.8,0,0,0,.8.8h5.6ZM17.97,2.983A3.987,3.987,0,0,0,15.7,1.928H6.5a2,2,0,0,0-2,2v18.4a2,2,0,0,0,1.6,1.96V3.928a.405.405,0,0,1,.4-.4h12.17c-.241-.2-.476-.381-.7-.545Z" transform="translate(287.501 265.072)" fill="#0087e8"/>
  </g>
</svg>
