<svg xmlns="http://www.w3.org/2000/svg" width="538.009" height="619" viewBox="0 0 538.009 619">
  <g id="Group_364" data-name="Group 364" transform="translate(145 -515)">
    <path id="Path_43" data-name="Path 43" d="M929.452,709.811H912.229l-.074-.134c-.22-.4-.433-.823-.631-1.257-1.774-3.8-2.524-8.142-3.186-11.974l-.5-2.889a1.784,1.784,0,0,1,2.808-1.745q3.926,2.857,7.855,5.708c.992.722,2.125,1.557,3.209,2.46.1-.508.214-1.018.324-1.521a1.785,1.785,0,0,1,3.26-.564l2.015,3.237c1.47,2.364,2.767,4.694,2.5,7.207a.387.387,0,0,1-.007.091,5.681,5.681,0,0,1-.292,1.21Z" transform="translate(-554.347 93.036)" fill="#f0f0f0"/>
    <path id="Path_1" data-name="Path 1" d="M845.364,175.481c-.008.027-.016.05-.024.077a1.21,1.21,0,0,0-.044.157,4.222,4.222,0,0,0-.156,1.049,4.159,4.159,0,0,0,.012.454,4.3,4.3,0,0,0,.083.576,4.108,4.108,0,0,0,.178.621,3.019,3.019,0,0,0,.116.282,4.452,4.452,0,0,0,3.062,2.523h0a1.93,1.93,0,0,0,.2.04,4.418,4.418,0,0,0,1.134.058h.007a4.418,4.418,0,0,0,2.511-1.025c.434-.36.482-.741,1.024-.572,1.729.539,2.884-2.311,2.02-3.872a1.587,1.587,0,0,0-.007-.176c-.083-1.09-1.724-1.368-2.681-1.947l0,.019a.839.839,0,0,1-1.583.114q-.262-.632-.476-1.282C848.9,171.257,844,173.322,845.364,175.481Z" transform="translate(-524.194 342.837)" fill="#2f2e41"/>
    <path id="Path_2" data-name="Path 2" d="M815.275,197.618c-.25.582-7.951.52-8.3,1.038-2.719,4,7.083,21.026,4.364,25.032l-.379.452A17.9,17.9,0,0,0,813.5,222.7c.073-1.64.145-3.285.223-4.925a13.535,13.535,0,0,1,1.951,3.43,22.22,22.22,0,0,1,3.866-2.9,17.019,17.019,0,0,1,3.761-3.1Z" transform="translate(-502.302 330.593)" fill="#2f2e41"/>
    <path id="Path_3" data-name="Path 3" d="M784.213,259.848a6.378,6.378,0,0,0-9.663,3.773l-11.7,30.493-20.116-11.42a6.228,6.228,0,1,0-3.885,6.194c4.236,4.521,22.6,23.059,30.205,15.816,6.391-6.088,15.614-29.683,17.834-37.831A6.379,6.379,0,0,0,784.213,259.848Z" transform="translate(-465.283 301.156)" fill="#a0616a"/>
    <path id="Path_4" data-name="Path 4" d="M653.594,253.251c-5.534-14.674-6.836-29.656-2.529-45.047a3.448,3.448,0,0,1,3.246-3.632l34.021-1.91a3.448,3.448,0,0,1,3.632,3.246l2.529,45.047a3.448,3.448,0,0,1-3.246,3.632l-34.021,1.91a3.448,3.448,0,0,1-3.632-3.246Z" transform="translate(-423.52 328.169)" fill="#e6e6e6"/>
    <path id="Path_5" data-name="Path 5" d="M659.183,242.125c-3.835-7.09-3.3-17.581-1.626-28.96a3.229,3.229,0,0,1,3.04-3.4l29.238-1.642a3.23,3.23,0,0,1,3.4,3.04l2.251,40.086a3.229,3.229,0,0,1-3.04,3.4l-18.112,1.017A14.385,14.385,0,0,1,659.183,242.125Z" transform="translate(-427.251 325.542)" fill="#fff"/>
    <circle id="Ellipse_1" data-name="Ellipse 1" cx="3.012" cy="3.012" r="3.012" transform="translate(243.927 567.093)" fill="#0089ea"/>
    <path id="Path_6" data-name="Path 6" d="M692.047,223.6c-.919-1.532-3.047-1.669-4.833-1.629a20.744,20.744,0,0,0-5.47.613,6.987,6.987,0,0,0-4.3,3.229c-1.046,2-.679,4.435-.117,6.626a44.218,44.218,0,0,0,5.04,11.962l1.307.893a27.123,27.123,0,0,0,8.829-19.128A4.687,4.687,0,0,0,692.047,223.6Z" transform="translate(-436.924 318.88)" fill="#0089ea"/>
    <path id="Path_7" data-name="Path 7" d="M327.828,392.978c-11.059-41.293-9.278-87.574,0-136.767a4.6,4.6,0,0,1,4.595-4.595h136.71a4.6,4.6,0,0,1,4.595,4.595V392.978a4.6,4.6,0,0,1-4.595,4.595H332.423a4.6,4.6,0,0,1-4.6-4.595Z" transform="translate(-254.922 304.618)" fill="#f2f2f2"/>
    <path id="Path_8" data-name="Path 8" d="M335.055,361.626a466.047,466.047,0,0,1,2.223-99.439,4.6,4.6,0,0,1,4.595-4.595H472.384a4.6,4.6,0,0,1,4.595,4.595V392.754a4.6,4.6,0,0,1-4.595,4.595H373.954A39.016,39.016,0,0,1,335.055,361.626Z" transform="translate(-265.277 301.743)" fill="#fff"/>
    <path id="Path_9" data-name="Path 9" d="M445.588,305.078H390.642a1.185,1.185,0,1,1,0-2.37h54.947a1.185,1.185,0,1,1,0,2.37Z" transform="translate(-292.664 280.041)" fill="#0089ea"/>
    <path id="Path_10" data-name="Path 10" d="M473.4,325.952H390.642a1.185,1.185,0,0,1,0-2.37H473.4a1.185,1.185,0,1,1,0,2.37Z" transform="translate(-293.056 270)" fill="#f2f2f2"/>
    <path id="Path_11" data-name="Path 11" d="M473.4,344.453H390.637a1.186,1.186,0,0,0,0,2.372H473.4a1.186,1.186,0,0,0,0-2.372Z" transform="translate(-293.054 259.961)" fill="#f2f2f2"/>
    <path id="Path_12" data-name="Path 12" d="M473.4,367.7H390.642a1.185,1.185,0,0,1,0-2.37H473.4a1.185,1.185,0,1,1,0,2.37Z" transform="translate(-293.056 249.918)" fill="#f2f2f2"/>
    <path id="Path_13" data-name="Path 13" d="M473.4,388.574H390.642a1.185,1.185,0,0,1,0-2.37H473.4a1.185,1.185,0,1,1,0,2.37Z" transform="translate(-293.056 239.877)" fill="#f2f2f2"/>
    <path id="Path_14" data-name="Path 14" d="M473.4,409.574H390.642a1.185,1.185,0,0,1,0-2.37H473.4a1.185,1.185,0,1,1,0,2.37Z" transform="translate(-293.056 229.776)" fill="#f2f2f2"/>
    <path id="Path_15" data-name="Path 15" d="M473.4,430.574H390.642a1.185,1.185,0,0,1,0-2.37H473.4a1.185,1.185,0,1,1,0,2.37Z" transform="translate(-293.056 219.674)" fill="#f2f2f2"/>
    <path id="Path_16" data-name="Path 16" d="M473.4,451.574H390.642a1.185,1.185,0,0,1,0-2.37H473.4a1.185,1.185,0,1,1,0,2.37Z" transform="translate(-293.056 209.572)" fill="#f2f2f2"/>
    <path id="Path_17" data-name="Path 17" d="M473.4,472.574H390.642a1.185,1.185,0,0,1,0-2.37H473.4a1.185,1.185,0,1,1,0,2.37Z" transform="translate(-293.056 199.471)" fill="#f2f2f2"/>
    <path id="Path_18" data-name="Path 18" d="M501.626,332.978c-3.636-1.3-8.345-.792-10.9,2.374-2.286,2.836-2.56,7.352.348,9.884,3.54,3.081,8.443,1.948,12.309.209,3.537-1.591,7.431-4.155,7.376-8.508a7.041,7.041,0,0,0-2.981-5.7,7.138,7.138,0,0,0-6.394-.81c-.933.341-.53,1.846.414,1.5a5.471,5.471,0,0,1,7.348,4.256c.546,3.614-2.542,5.954-5.411,7.38-3.148,1.564-7.154,3.061-10.525,1.264-2.883-1.537-3.41-5.044-1.812-7.736,1.981-3.338,6.442-3.816,9.81-2.613.945.338,1.352-1.166.414-1.5Z" transform="translate(-342.406 266.907)" fill="#0089ea"/>
    <path id="Path_19" data-name="Path 19" d="M407.626,374.978c-3.636-1.3-8.345-.792-10.9,2.374-2.286,2.836-2.56,7.352.348,9.884,3.54,3.081,8.443,1.948,12.309.209,3.537-1.591,7.431-4.155,7.376-8.508a7.041,7.041,0,0,0-2.981-5.7,7.138,7.138,0,0,0-6.394-.809c-.933.341-.53,1.846.414,1.5a5.471,5.471,0,0,1,7.348,4.256c.546,3.614-2.541,5.954-5.411,7.38-3.148,1.564-7.154,3.061-10.525,1.264-2.883-1.537-3.41-5.044-1.812-7.736,1.981-3.338,6.442-3.816,9.81-2.613.945.338,1.352-1.166.414-1.5Z" transform="translate(-295.019 246.704)" fill="#e6e6e6"/>
    <path id="Path_20" data-name="Path 20" d="M500.626,458.978c-3.636-1.3-8.345-.792-10.9,2.374-2.286,2.836-2.56,7.352.348,9.884,3.54,3.081,8.443,1.948,12.309.209,3.537-1.591,7.431-4.155,7.376-8.508a7.041,7.041,0,0,0-2.981-5.7,7.138,7.138,0,0,0-6.394-.81c-.934.341-.53,1.846.414,1.5a5.471,5.471,0,0,1,7.348,4.256c.546,3.614-2.541,5.954-5.411,7.38-3.148,1.564-7.154,3.061-10.525,1.264-2.883-1.537-3.41-5.044-1.812-7.736,1.981-3.338,6.442-3.816,9.81-2.613.945.338,1.352-1.166.414-1.5Z" transform="translate(-341.902 206.297)" fill="#e6e6e6"/>
    <path id="Path_21" data-name="Path 21" d="M508.967,489.352a35.94,35.94,0,0,0,10.17,19.963,35.446,35.446,0,0,0,31.9,9.366c.97-.2.844-1.756-.136-1.551a34.347,34.347,0,0,1-20.635-2.124,33.9,33.9,0,0,1-19.748-25.79c-.151-.987-1.7-.857-1.551.136Z" transform="translate(-352.887 190.652)" fill="#e6e6e6"/>
    <path id="Path_22" data-name="Path 22" d="M593.1,550.446l11.58-6.669a.782.782,0,0,0,.058-1.237l-11.923-8.631c-.807-.584-1.814.6-1,1.193l11.923,8.631.058-1.237-11.58,6.669C591.342,549.665,592.234,550.943,593.1,550.446Z" transform="translate(-393.919 168.903)" fill="#e6e6e6"/>
    <path id="Path_23" data-name="Path 23" d="M527.967,301.444a35.941,35.941,0,0,1,10.17-19.963,35.446,35.446,0,0,1,31.9-9.366c.97.2.844,1.756-.136,1.551a34.347,34.347,0,0,0-20.635,2.124,33.9,33.9,0,0,0-19.748,25.79c-.151.987-1.7.857-1.551-.136Z" transform="translate(-362.491 295.106)" fill="#3f3d56"/>
    <path id="Path_24" data-name="Path 24" d="M612.1,253.382l11.58,6.669a.782.782,0,0,1,.058,1.237l-11.923,8.631c-.807.584-1.814-.6-1-1.193l11.923-8.631.058,1.237-11.58-6.669C610.342,254.163,611.234,252.885,612.1,253.382Z" transform="translate(-403.487 303.823)" fill="#3f3d56"/>
    <path id="Path_25" data-name="Path 25" d="M369.362,409.351a35.941,35.941,0,0,1-10.17,19.963,35.446,35.446,0,0,1-31.9,9.366c-.97-.2-.844-1.756.136-1.551a34.347,34.347,0,0,0,20.635-2.124,33.9,33.9,0,0,0,19.749-25.79c.151-.987,1.7-.857,1.551.136Z" transform="translate(-258.019 229.135)" fill="#e6e6e6"/>
    <path id="Path_26" data-name="Path 26" d="M312.343,470.446l-11.58-6.669a.783.783,0,0,1-.058-1.237l11.923-8.631c.807-.584,1.814.6,1,1.193l-11.923,8.631-.058-1.237,11.58,6.669C314.1,469.665,313.206,470.943,312.343,470.446Z" transform="translate(-245.418 207.385)" fill="#e6e6e6"/>
    <path id="Path_27" data-name="Path 27" d="M223.609,479.507c-5.8-9.984-8.568-20.706-7.311-32.407a2.539,2.539,0,0,1,1.916-3.032l24.475-5.522a2.539,2.539,0,0,1,3.032,1.916l7.311,32.407a2.539,2.539,0,0,1-1.916,3.032l-24.475,5.522A2.539,2.539,0,0,1,223.609,479.507Z" transform="translate(-204.805 214.729)" fill="#f2f2f2"/>
    <path id="Path_28" data-name="Path 28" d="M225.613,471.458c-3.647-4.683-4.533-12.367-4.7-20.834a2.378,2.378,0,0,1,1.794-2.84l21.034-4.745a2.378,2.378,0,0,1,2.84,1.794l6.506,28.838a2.378,2.378,0,0,1-1.794,2.84l-13.03,2.94A10.592,10.592,0,0,1,225.613,471.458Z" transform="translate(-207.141 212.566)" fill="#fff"/>
    <circle id="Ellipse_2" data-name="Ellipse 2" cx="2.218" cy="2.218" r="2.218" transform="translate(27.248 681.786)" fill="#f2f2f2"/>
    <path id="Path_29" data-name="Path 29" d="M246.551,456.5c-.854-1-2.416-.842-3.708-.6a15.273,15.273,0,0,0-3.9,1.11,5.145,5.145,0,0,0-2.727,2.867,6.909,6.909,0,0,0,.72,4.826,32.561,32.561,0,0,0,5.114,8.074l1.057.49a19.971,19.971,0,0,0,4.087-14.964,3.452,3.452,0,0,0-.646-1.807Z" transform="translate(-214.433 206.439)" fill="#f2f2f2"/>
    <circle id="Ellipse_3" data-name="Ellipse 3" cx="2.218" cy="2.218" r="2.218" transform="translate(27.248 681.786)" fill="#e6e6e6"/>
    <path id="Path_30" data-name="Path 30" d="M246.551,456.5c-.854-1-2.416-.842-3.708-.6a15.273,15.273,0,0,0-3.9,1.11,5.145,5.145,0,0,0-2.727,2.867,6.909,6.909,0,0,0,.72,4.826,32.561,32.561,0,0,0,5.114,8.074l1.057.49a19.971,19.971,0,0,0,4.087-14.964,3.452,3.452,0,0,0-.646-1.807Z" transform="translate(-214.433 206.439)" fill="#e6e6e6"/>
    <path id="Path_31" data-name="Path 31" d="M621.446,510.665H615.49l-2.834-22.975h8.791Z" transform="translate(-297.182 280.408)" fill="#a0616a"/>
    <path id="Path_32" data-name="Path 32" d="M810.934,709.666a2.534,2.534,0,0,0,2.518,2.522h11.213l.347-.72L826.6,708.2l.614,3.273.136.72h4.229l-.06-.725-1.128-13.524-1.475-.091-6.374-.378-1.566-.1v4.038C819.785,702.678,810.461,707.456,810.934,709.666Z" transform="translate(-504.67 90.195)" fill="#2f2e41"/>
    <path id="Path_33" data-name="Path 33" d="M570.039,502.961l-5.621,1.971-10.277-20.743,8.3-2.909Z" transform="translate(-267.959 283.491)" fill="#a0616a"/>
    <path id="Path_34" data-name="Path 34" d="M773.568,706.44a2.534,2.534,0,0,0,3.21,1.547l10.581-3.711.09-.794.414-3.613,1.663,2.885.367.635,3.991-1.4-.3-.664-5.54-12.389-1.422.4-6.14,1.753-1.509.428,1.336,3.811C779.608,696.915,772.389,704.511,773.568,706.44Z" transform="translate(-485.771 94.255)" fill="#2f2e41"/>
    <path id="Path_35" data-name="Path 35" d="M575.852,177.536l3.693,16.692,27.005,2.443,2.482-14.534Z" transform="translate(-279.515 429.6)" fill="#a0616a"/>
    <path id="Path_36" data-name="Path 36" d="M800.088,371.828,769.7,371.32l-.654,8.871-23.467,70.541-4.17,17.344,11.952,64.4,20.24-.013s-.42-16.918-1.228-17.62-2.494.011-1.244-3.6,2.173-4.78.694-6.232-3.268-.234-2.17-3.693,10.055-50.686,10.055-50.686V535.3h20.824s4.36-3.983,2.353-6.057-3.635-2.481-2.007-5.331,5.162-2.132,2.174-5.748c-2.374-2.873,3.305-82.1,5.74-114.541a33.661,33.661,0,0,0-7.8-24.176h0Z" transform="translate(-474.302 247.037)" fill="#2f2e41"/>
    <path id="Path_37" data-name="Path 37" d="M807.394,244.577l13.442-.692,6.243,9.865s11.747,1.964,10.933,15.806-14.292,25.989-14.292,25.989l.576-1.975-1,2.859.128,1.605,1.365,1.7.141,1.758-1.209,2.782,1.645,2.664-34.579-3.35-1.264-4.606,1.845-2.474-1.03-3.226,1.549-3.1.808-.673s-8.836-13.275,1.307-23.274l4.071-6.921,4.555-5.558Z" transform="translate(-497.255 308.337)" fill="#0089ea"/>
    <circle id="Ellipse_4" data-name="Ellipse 4" cx="12.746" cy="12.746" r="12.746" transform="translate(303.739 521.598)" fill="#a0616a"/>
    <path id="Path_38" data-name="Path 38" d="M823.928,211.573a6.139,6.139,0,0,1-2.055-3.373,13.193,13.193,0,0,0,.182,4.816c-.69.519-1.36,1.012-1.993,1.458a13.535,13.535,0,0,0-1.951-3.43c-.078,1.64-.151,3.285-.223,4.925a17.9,17.9,0,0,1-2.548,1.438l.379-.452c2.719-4.006-4.318-11.381-1.6-15.382.763-1.121-2.683-9.98-5.309-10.379-2.335-.353-2.237.322-4.5.815a11.323,11.323,0,0,0-1.085-2.808,9.279,9.279,0,0,1-.088,2.958c-.8.031-1.437-.481-2.294-.612-5.465-.836-4.909-6.747-3.389-8.62s6.591-2.429,8.926-3.036c.213-.208.7-.078.908-.275,4.476-4.1,10.461-4.774,15.848-2.959a9.8,9.8,0,0,1,1.406.612c4.572,2.4,8.485,5.694,8.2,10.848-.133,2.414-.681,2.79,0,4.152.167.334-1.3,3.481,1.168,3.816s1.353,2.238,1.946,2.93C838.155,201.694,829.928,209.511,823.928,211.573Z" transform="translate(-500.762 341.133)" fill="#2f2e41"/>
    <path id="Path_39" data-name="Path 39" d="M625.524,553.523c-2.675-11.234-2.229-22.3,2.351-33.138a2.539,2.539,0,0,1,2.709-2.35l25.027,1.776a2.539,2.539,0,0,1,2.35,2.709l-2.351,33.138a2.539,2.539,0,0,1-2.709,2.35l-25.027-1.776A2.539,2.539,0,0,1,625.524,553.523Z" transform="translate(-410.739 176.466)" fill="#f2f2f2"/>
    <path id="Path_40" data-name="Path 40" d="M631.127,545.607c-2.141-5.536-.772-13.149,1.512-21.3a2.378,2.378,0,0,1,2.537-2.2l21.508,1.526a2.378,2.378,0,0,1,2.2,2.537l-2.092,29.489a2.378,2.378,0,0,1-2.537,2.2l-13.324-.945a10.592,10.592,0,0,1-9.8-11.3Z" transform="translate(-413.719 174.51)" fill="#fff"/>
    <circle id="Ellipse_5" data-name="Ellipse 5" cx="2.218" cy="2.218" r="2.218" transform="translate(225.925 721.052)" fill="#f2f2f2"/>
    <path id="Path_41" data-name="Path 41" d="M658.177,534.407c-.529-1.2-2.07-1.5-3.379-1.64a15.277,15.277,0,0,0-4.052-.062,5.145,5.145,0,0,0-3.439,1.958,6.909,6.909,0,0,0-.7,4.828,32.559,32.559,0,0,0,2.566,9.207l.871.774a19.971,19.971,0,0,0,8.232-13.148,3.452,3.452,0,0,0-.1-1.916Z" transform="translate(-421.563 169.458)" fill="#f2f2f2"/>
    <path id="Path_42" data-name="Path 42" d="M871.646,319.2l-.5-39.082a6.309,6.309,0,0,0-6.308-6.209h0a6.309,6.309,0,0,0-6.3,6.643l1.766,40.581.034,24.7a5.505,5.505,0,1,0,6.759,2.059Z" transform="translate(-529.895 293.894)" fill="#a0616a"/>
    <path id="Path_44" data-name="Path 44" d="M830.548,726.385l-163.662.16a.618.618,0,1,1,0-1.236l163.662-.16a.618.618,0,0,1,0,1.236Z" transform="translate(-438.158 76.836)" fill="#cacaca"/>
    <ellipse id="Ellipse_39" data-name="Ellipse 39" cx="210.5" cy="204" rx="210.5" ry="204" transform="translate(-145 726)" fill="#0087e8"/>
  </g>
</svg>
