<svg xmlns="http://www.w3.org/2000/svg" width="36" height="31.5" viewBox="0 0 36 31.5">
  <g id="Layer_4" data-name="Layer 4" transform="translate(-2 -2)">
    <path id="Path_1216" data-name="Path 1216" d="M35.75,6.5h-9.1V4.813A2.812,2.812,0,0,0,23.836,2H15.961a2.813,2.813,0,0,0-2.812,2.813V6.5H4.25A2.25,2.25,0,0,0,2,8.75v22.5A2.25,2.25,0,0,0,4.25,33.5h31.5A2.25,2.25,0,0,0,38,31.25V8.75A2.25,2.25,0,0,0,35.75,6.5ZM15.4,4.813a.562.562,0,0,1,.563-.562h7.875a.563.563,0,0,1,.563.563V6.5h-9ZM4.25,31.25V8.75h31.5v22.5Z" fill="#0089ea"/>
    <path id="Path_1217" data-name="Path 1217" d="M21.239,26.95H17.4a1.463,1.463,0,0,1-1.463-1.463V22.45H12.9a1.463,1.463,0,0,1-1.462-1.462V17.163A1.463,1.463,0,0,1,12.9,15.7H15.94V12.663A1.462,1.462,0,0,1,17.4,11.2h3.836a1.462,1.462,0,0,1,1.451,1.462V15.7h3.049a1.463,1.463,0,0,1,1.451,1.462v3.825a1.463,1.463,0,0,1-1.451,1.462H22.69v3.038a1.463,1.463,0,0,1-1.451,1.463Zm-3.544-1.8h3.161v-4.5h4.5V17.5h-4.5V13H17.695v4.5h-4.5v3.15h4.5ZM25.694,17.5Z" transform="translate(1.18 1.15)" fill="#0089ea"/>
  </g>
</svg>
