<svg xmlns="http://www.w3.org/2000/svg" width="26.068" height="33.122" viewBox="0 0 26.068 33.122">
  <g id="note-line" transform="translate(-4 -1.997)">
    <path id="Path_1036" data-name="Path 1036" d="M24.852,33.364H5.738V8.28H17.224L18.961,6H5.738A2.065,2.065,0,0,0,4,8.28V33.364a2.065,2.065,0,0,0,1.738,2.28H24.852a2.065,2.065,0,0,0,1.738-2.28v-17.1l-1.738,2.28Z" transform="translate(0 -0.525)" fill="#0089ea"/>
    <path id="Path_1037" data-name="Path 1037" d="M30.841,5.336,27.913,2.408a1.4,1.4,0,0,0-1.981,0L14.02,14.389l-.964,4.179a1.4,1.4,0,0,0,1.364,1.677,1.468,1.468,0,0,0,.321,0l4.214-.93,11.886-12a1.4,1.4,0,0,0,0-1.981ZM18.052,17.708l-3.18.7.739-3.154,8.966-9.027,2.45,2.45ZM28.009,7.7l-2.45-2.45,1.347-1.373,2.468,2.468Z" transform="translate(-1.184 0)" fill="#0089ea"/>
  </g>
</svg>
