<svg xmlns="http://www.w3.org/2000/svg" width="203.637" height="218.705" viewBox="0 0 203.637 218.705">
  <g id="notification-new" transform="translate(-3.373 -1.125)" opacity="0.11">
    <path id="Path_1334" data-name="Path 1334" d="M176.844,126.315V106.707H161.761v22.625a6.864,6.864,0,0,0,2.259,5.276l20.366,20.366v12.066H18.471V154.972l20.366-20.366a6.864,6.864,0,0,0,2.259-5.276V91.623a60.332,60.332,0,0,1,60.332-60.332,59.494,59.494,0,0,1,30.159,8.214l.007-17.264a73.23,73.23,0,0,0-22.625-6.033V1.125H93.887V16.208A76.548,76.548,0,0,0,26.013,91.623v34.691L5.647,146.68a6.865,6.865,0,0,0-2.259,5.276V174.58a7.086,7.086,0,0,0,7.542,7.542H63.721a37.708,37.708,0,1,0,75.415,0h52.791a7.086,7.086,0,0,0,7.542-7.542V151.956a6.865,6.865,0,0,0-2.259-5.276Zm-75.415,78.432A22.625,22.625,0,0,1,78.8,182.122h45.249a22.625,22.625,0,0,1-22.625,22.625Z" transform="translate(0)" fill="#0084e3"/>
    <path id="Path_1335" data-name="Path 1335" d="M85.082,34.666A30.166,30.166,0,1,1,54.916,4.5,30.166,30.166,0,0,1,85.082,34.666Z" transform="translate(121.928 19.25)" fill="#0084e3"/>
  </g>
</svg>
