<svg id="search" xmlns="http://www.w3.org/2000/svg" width="20.742" height="20.741" viewBox="0 0 20.742 20.741">
  <path id="Path_1180" data-name="Path 1180" d="M23.217,23.215a1.3,1.3,0,0,1,1.834,0l4.991,4.991a1.3,1.3,0,0,1-1.833,1.834L23.218,25.05a1.3,1.3,0,0,1,0-1.834Z" transform="translate(-9.68 -9.678)" fill="#a8a8a8" fill-rule="evenodd"/>
  <path id="Path_1181" data-name="Path 1181" d="M8.426,15.556A7.13,7.13,0,1,0,1.3,8.426,7.13,7.13,0,0,0,8.426,15.556Zm8.426-7.13A8.426,8.426,0,1,1,8.426,0a8.426,8.426,0,0,1,8.426,8.426Z" fill="#a8a8a8" fill-rule="evenodd"/>
</svg>
