<svg xmlns="http://www.w3.org/2000/svg" width="19.644" height="19.644" viewBox="0 0 19.644 19.644">
  <path id="uploadalt" d="M17.189,19.644H2.456a2.367,2.367,0,0,1-1.736-.719A2.363,2.363,0,0,1,0,17.189V15.347a1.18,1.18,0,0,1,.365-.863,1.18,1.18,0,0,1,.863-.365,1.18,1.18,0,0,1,.863.365,1.18,1.18,0,0,1,.365.863v.614a1.211,1.211,0,0,0,1.228,1.228H15.961a1.211,1.211,0,0,0,1.228-1.228v-.614a1.228,1.228,0,0,1,2.456,0v1.842a2.455,2.455,0,0,1-2.456,2.456Zm-.4-12.278H12.278v6.139a1.211,1.211,0,0,1-1.228,1.228H8.594a1.211,1.211,0,0,1-1.228-1.228V7.367H2.839q-.288,0-.355-.115t.163-.365L9.189.268a.88.88,0,0,1,1.266,0L17,6.887q.23.249.153.365t-.365.115Z"/>
</svg>
