<svg xmlns="http://www.w3.org/2000/svg" width="40.5" height="37.969" viewBox="0 0 40.5 37.969">
  <g id="video-gallery-line" transform="translate(-2 -2)">
    <path id="Path_1030" data-name="Path 1030" d="M40.121,10H4.379A2.379,2.379,0,0,0,2,12.379V35.464a2.379,2.379,0,0,0,2.379,2.379H40.121A2.379,2.379,0,0,0,42.5,35.464V12.379A2.379,2.379,0,0,0,40.121,10Zm-.152,25.313H4.531V12.531H39.969Z" transform="translate(0 2.125)" fill="#0089ea"/>
    <path id="Path_1031" data-name="Path 1031" d="M36.515,3.266A1.266,1.266,0,0,0,35.249,2H7.406A1.266,1.266,0,0,0,6.14,3.266V4.531H36.515Z" transform="translate(1.1)" fill="#0089ea"/>
    <path id="Path_1032" data-name="Path 1032" d="M39.557,7.266A1.266,1.266,0,0,0,38.292,6H5.386A1.266,1.266,0,0,0,4.12,7.266V8.531H39.557Z" transform="translate(0.563 1.063)" fill="#0089ea"/>
    <path id="Path_1033" data-name="Path 1033" d="M13.025,29.934a2.2,2.2,0,0,0,1.177.354,2.126,2.126,0,0,0,.873-.19L27.44,24.58a2.139,2.139,0,0,0,0-3.923L15.075,15.139A2.152,2.152,0,0,0,12.05,17.1V28.137a2.152,2.152,0,0,0,.975,1.8Zm.8-12.833A.367.367,0,0,1,14,16.784a.38.38,0,0,1,.2,0,.342.342,0,0,1,.152,0L26.719,22.29a.367.367,0,0,1,.228.354.354.354,0,0,1-.228.342L14.353,28.5a.354.354,0,0,1-.354,0,.392.392,0,0,1-.177-.316Z" transform="translate(2.67 3.441)" fill="#0089ea"/>
  </g>
</svg>
